<svg width="14" height="24" viewBox="0 0 14 24" fill="none" xmlns="http://www.w3.org/2000/svg">
<path d="M7 20C8.10457 20 9 20.8954 9 22C9 23.1046 8.10457 24 7 24C5.89543 24 5 23.1046 5 22C5 20.8954 5.89543 20 7 20ZM12.4619 0.00878906C12.8526 0.0476567 13.22 0.219953 13.5 0.5C13.8201 0.820127 14 1.25431 14 1.70703V14.293L13.9912 14.4619C13.9523 14.8526 13.78 15.22 13.5 15.5C13.22 15.78 12.8526 15.9523 12.4619 15.9912L12.293 16H1.70703C1.25431 16 0.820127 15.8201 0.5 15.5C0.219953 15.22 0.0476567 14.8526 0.00878906 14.4619L0 14.293V1.70703C2.00145e-05 1.25431 0.179873 0.820127 0.5 0.5C0.820127 0.179873 1.25431 2.00145e-05 1.70703 0H12.293L12.4619 0.00878906ZM1.70703 1.5C1.65213 1.50002 1.59937 1.52172 1.56055 1.56055C1.52172 1.59937 1.50002 1.65213 1.5 1.70703V14.293C1.50002 14.3479 1.52172 14.4006 1.56055 14.4395C1.59937 14.4783 1.65213 14.5 1.70703 14.5H12.293C12.3479 14.5 12.4006 14.4783 12.4395 14.4395C12.4783 14.4006 12.5 14.3479 12.5 14.293V1.70703C12.5 1.65213 12.4783 1.59937 12.4395 1.56055C12.4006 1.52172 12.3479 1.50002 12.293 1.5H1.70703ZM5.39746 5C5.46476 5.00006 5.53099 5.01714 5.58984 5.0498L9.92383 7.45801C9.97421 7.486 10.0208 7.52077 10.0615 7.56152C10.3036 7.80372 10.3036 8.19628 10.0615 8.43848C10.0208 8.47923 9.97421 8.514 9.92383 8.54199L5.58984 10.9502C5.53099 10.9829 5.46476 10.9999 5.39746 11C5.17815 11 5 10.8219 5 10.6025V5.39746C5 5.17815 5.17815 5 5.39746 5Z" fill="#1CB955"/>
</svg>
