<svg width="16" height="16" viewBox="0 0 16 16" fill="none" xmlns="http://www.w3.org/2000/svg">
<path d="M3.88198 11.5H4.75002C5.16423 11.5 5.50002 11.8358 5.50002 12.25C5.50002 12.6642 5.16423 13 4.75002 13H3.77924C3.59429 13 3.41055 12.9702 3.23509 12.9117L2.88893 12.7963C2.30434 12.6014 1.77315 12.2732 1.33743 11.8374L1.27872 11.7787C0.767741 11.2677 0.393073 10.6368 0.189006 9.94355L0.180628 9.91509C0.0608408 9.50817 1.89543e-05 9.08618 1.89543e-05 8.662V4.6441C1.89543e-05 4.21749 0.0687928 3.79367 0.203693 3.38895C0.398553 2.80435 0.726851 2.27315 1.16258 1.83742L1.33743 1.66257C1.77315 1.22685 2.30434 0.898552 2.88893 0.70369C3.29366 0.568779 3.7175 0.5 4.14412 0.5H11.8559C12.2825 0.5 12.7063 0.568778 13.1111 0.703687C13.6957 0.898551 14.2269 1.22685 14.6626 1.66259L14.8374 1.83741C15.2732 2.27315 15.6015 2.80435 15.7963 3.38896C15.9312 3.79367 16 4.21749 16 4.64409V8.85591C16 9.28251 15.9312 9.70633 15.7963 10.111C15.6015 10.6956 15.2732 11.2269 14.8374 11.6626L14.6626 11.8374C14.2269 12.2732 13.6957 12.6014 13.1111 12.7963C12.7063 12.9312 12.2825 13 11.8559 13H10.5H10.25H10.125C10.0789 13 10.0558 13.0558 10.0884 13.0884L11.2929 14.2929C11.4255 14.4255 11.5 14.6054 11.5 14.7929C11.5 15.1834 11.1834 15.5 10.7929 15.5H10.7701C10.5958 15.5 10.4273 15.4377 10.295 15.3243L7.18983 12.6627C7.06936 12.5594 7.00002 12.4087 7.00002 12.25C7.00002 12.0913 7.06936 11.9406 7.18983 11.8373L10.295 9.17573C10.4273 9.06233 10.5958 9 10.7701 9H10.7929C11.1834 9 11.5 9.31658 11.5 9.70711C11.5 9.89464 11.4255 10.0745 11.2929 10.2071L10.5 11L10.0884 11.4116C10.0558 11.4442 10.0789 11.5 10.125 11.5H10.25H10.5H11.8374C12.2732 11.5 12.7029 11.3986 13.0926 11.2037L13.1838 11.1581C13.3932 11.0534 13.5844 10.9156 13.75 10.75C13.9156 10.5844 14.0534 10.3932 14.1581 10.1838L14.2037 10.0926C14.3986 9.7029 14.5 9.27314 14.5 8.8374V4.6626C14.5 4.22686 14.3986 3.7971 14.2037 3.40736L14.1581 3.31622C14.0534 3.10678 13.9156 2.91559 13.75 2.75001C13.5844 2.58442 13.3932 2.44661 13.1838 2.34188L13.0926 2.29631C12.7029 2.10145 12.2732 2 11.8374 2H4.16258C3.72685 2 3.2971 2.10145 2.90737 2.29632L2.81622 2.34189C2.60678 2.44661 2.4156 2.58441 2.25002 2.74999C2.08442 2.91558 1.94661 3.10679 1.84188 3.31625L1.7963 3.40741C1.60146 3.79711 1.50002 4.22683 1.50002 4.66254V8.83746C1.50002 9.27316 1.60146 9.70289 1.79631 10.0926L1.84189 10.1838C1.94661 10.3932 2.08442 10.5844 2.25 10.75C2.41558 10.9156 2.60678 11.0534 2.81623 11.1581L3.15838 11.3292C3.38305 11.4415 3.63079 11.5 3.88198 11.5Z" fill="#B3B3B3"/>
</svg>
