<svg width="15" height="17" viewBox="0 0 15 17" fill="none" xmlns="http://www.w3.org/2000/svg">
<path d="M7.98145 0.625C8.79376 0.625062 9.58778 0.865813 10.2637 1.31641C10.489 1.46665 10.6991 1.63858 10.8906 1.83008L11.0576 1.99707C11.3237 2.26319 11.5627 2.55504 11.7715 2.86816C12.1349 3.41329 12.4026 4.01675 12.5615 4.65234L12.5723 4.69531C12.6905 5.16854 12.75 5.65479 12.75 6.14258V8.98145C12.7501 9.49762 12.9031 10.0022 13.1895 10.4316C13.2849 10.5748 13.394 10.7084 13.5156 10.8301L14.25 11.5645C14.4901 11.8046 14.625 12.1302 14.625 12.4697C14.625 13.1768 14.0518 13.75 13.3447 13.75H10.125V14.1523C10.125 14.4974 10.0449 14.8379 9.89062 15.1465C9.67555 15.5766 9.32663 15.9256 8.89648 16.1406C8.58786 16.2949 8.2474 16.375 7.90234 16.375H7.09766C6.7526 16.375 6.41214 16.2949 6.10352 16.1406C5.67337 15.9256 5.32445 15.5766 5.10938 15.1465C4.95506 14.8379 4.875 14.4974 4.875 14.1523V13.75H1.65527C0.992397 13.75 0.447415 13.2462 0.381836 12.6006L0.375 12.4697L0.380859 12.3428C0.410019 12.0498 0.540012 11.7745 0.75 11.5645L1.48438 10.8301C1.60602 10.7084 1.7151 10.5748 1.81055 10.4316C2.09687 10.0022 2.24994 9.49762 2.25 8.98145V6.14258C2.25 5.65479 2.30947 5.16854 2.42773 4.69531L2.43848 4.65234C2.59741 4.01675 2.8651 3.41329 3.22852 2.86816C3.43728 2.55504 3.67628 2.26319 3.94238 1.99707L4.10938 1.83008C4.30091 1.63858 4.51098 1.46665 4.73633 1.31641C5.41222 0.865813 6.20624 0.625062 7.01855 0.625H7.98145ZM6.375 14.1523C6.375 14.2645 6.401 14.3752 6.45117 14.4756C6.5211 14.6154 6.63456 14.7289 6.77441 14.7988C6.87476 14.849 6.98547 14.875 7.09766 14.875H7.90234C8.01453 14.875 8.12524 14.849 8.22559 14.7988C8.36544 14.7289 8.4789 14.6154 8.54883 14.4756C8.599 14.3752 8.625 14.2645 8.625 14.1523V13.75H6.375V14.1523ZM7.01855 2.125C6.50238 2.12506 5.99785 2.27813 5.56836 2.56445C5.4252 2.6599 5.29161 2.76898 5.16992 2.89062L5.00293 3.05762C4.80667 3.25389 4.63054 3.46926 4.47656 3.7002C4.20846 4.10234 4.01078 4.54771 3.89355 5.0166L3.88379 5.05859C3.79519 5.41299 3.75 5.77727 3.75 6.14258V8.98145C3.74994 9.79376 3.50919 10.5878 3.05859 11.2637C2.90835 11.489 2.73642 11.6991 2.54492 11.8906L2.18555 12.25H12.8145L12.4551 11.8906C12.2636 11.6991 12.0916 11.489 11.9414 11.2637C11.4908 10.5878 11.2501 9.79376 11.25 8.98145V6.14258C11.25 5.77727 11.2048 5.41299 11.1162 5.05859L11.1064 5.0166C10.9892 4.54771 10.7915 4.10234 10.5234 3.7002C10.3695 3.46926 10.1933 3.25389 9.99707 3.05762L9.83008 2.89062C9.70839 2.76898 9.5748 2.6599 9.43164 2.56445C9.00215 2.27813 8.49762 2.12506 7.98145 2.125H7.01855Z" fill="#B3B3B3"/>
</svg>
