<svg width="14" height="14" viewBox="0 0 14 14" fill="none" xmlns="http://www.w3.org/2000/svg">
<path d="M2.14648 0C2.37285 9.97568e-06 2.58994 0.0899365 2.75 0.25C2.91006 0.410063 2.99999 0.627153 3 0.853516V5.5L12.832 0.0917969C12.942 0.031293 13.0659 0 13.1914 0C13.3888 7.31604e-06 13.5781 0.0783351 13.7178 0.217773L13.75 0.25C13.9101 0.410063 14 0.627153 14 0.853516V13.1465C14 13.3728 13.9101 13.5899 13.75 13.75L13.7178 13.7822C13.5781 13.9217 13.3888 14 13.1914 14C13.0659 14 12.942 13.9687 12.832 13.9082L3 8.5V13.1465C2.99999 13.3728 2.91006 13.5899 2.75 13.75C2.58994 13.9101 2.37285 14 2.14648 14H0.853516C0.627153 14 0.410063 13.9101 0.25 13.75C0.0899367 13.5899 1.01019e-05 13.3728 0 13.1465V0.853516C1.01809e-05 0.627153 0.0899367 0.410063 0.25 0.25C0.410063 0.0899366 0.627153 1.00072e-05 0.853516 0H2.14648Z" fill="#B3B3B3"/>
</svg>
