<svg width="18" height="16" viewBox="0 0 18 16" fill="none" xmlns="http://www.w3.org/2000/svg">
<path d="M15.6465 0.625C16.0477 0.625009 16.4346 0.764469 16.7422 1.0166L16.8691 1.13086L16.9834 1.25781C17.2355 1.56543 17.375 1.9523 17.375 2.35352V13.6465C17.375 14.1049 17.1933 14.545 16.8691 14.8691C16.545 15.1933 16.1049 15.375 15.6465 15.375H8.35352C7.89509 15.375 7.45502 15.1933 7.13086 14.8691C6.8067 14.545 6.62501 14.1049 6.625 13.6465V2.35352C6.62501 1.89509 6.8067 1.45502 7.13086 1.13086L7.25781 1.0166C7.56543 0.764469 7.9523 0.625009 8.35352 0.625H15.6465ZM5 15.125H3V13.375H5V15.125ZM8.375 13.625H15.625V2.375H8.375V13.625ZM12 8C13.1046 8 14 8.89543 14 10C14 11.1046 13.1046 12 12 12C10.8954 12 10 11.1046 10 10C10 8.89543 10.8954 8 12 8ZM5 2.375H2.80859C2.74144 2.37507 2.67531 2.3909 2.61523 2.4209C2.46832 2.49435 2.37516 2.64437 2.375 2.80859V9.625H5V11.375H2.35352C1.89509 11.375 1.45502 11.1933 1.13086 10.8691C0.847243 10.5855 0.673103 10.213 0.633789 9.81738L0.625 9.64648V2.80859C0.625159 1.98158 1.09235 1.22539 1.83203 0.855469C2.13517 0.703901 2.46968 0.625066 2.80859 0.625H5V2.375ZM12 4C12.5523 4 13 4.44772 13 5C13 5.55228 12.5523 6 12 6C11.4477 6 11 5.55228 11 5C11 4.44772 11.4477 4 12 4Z" fill="#B3B3B3"/>
</svg>
