<svg width="19" height="23" viewBox="0 0 19 23" fill="none" xmlns="http://www.w3.org/2000/svg">
<path d="M5 9.25H2.5V20.25H16.5V9.25H14V7.25H17C17.8284 7.25 18.5 7.9216 18.5 8.75V20.75C18.5 21.5784 17.8284 22.25 17 22.25H2C1.17157 22.25 0.500001 21.5784 0.5 20.75V8.75C0.5 7.92157 1.17157 7.25 2 7.25H5V9.25ZM9.58594 0.75C9.8511 0.75004 10.1055 0.855468 10.293 1.04297L13.793 4.54297C14.1834 4.93347 14.1834 5.56653 13.793 5.95703C13.6055 6.14453 13.3511 6.24996 13.0859 6.25H12.9141C12.6489 6.24996 12.3945 6.14453 12.207 5.95703L10.4971 4.24707C10.499 4.27246 10.5 4.29846 10.5 4.32422V11.8965C10.5 12.1228 10.4101 12.3399 10.25 12.5C10.0899 12.6601 9.87285 12.75 9.64648 12.75H9.35352C9.12716 12.75 8.91006 12.6601 8.75 12.5C8.58995 12.3399 8.50001 12.1228 8.5 11.8965V4.32422C8.5 4.29846 8.50098 4.27246 8.50293 4.24707L6.79297 5.95703C6.60547 6.14453 6.3511 6.24996 6.08594 6.25H5.91406C5.6489 6.24996 5.39453 6.14453 5.20703 5.95703C4.81661 5.56653 4.81661 4.93347 5.20703 4.54297L8.70703 1.04297C8.89453 0.855468 9.1489 0.75004 9.41406 0.75H9.58594Z" fill="white"/>
</svg>
