<svg width="17" height="17" viewBox="0 0 17 17" fill="none" xmlns="http://www.w3.org/2000/svg">
<path d="M8.82996 0.5C10.9517 0.5 12.9869 1.34248 14.4872 2.84277C15.9875 4.34306 16.83 6.37827 16.83 8.5C16.83 10.6217 15.9875 12.6569 14.4872 14.1572C12.9869 15.6575 10.9517 16.5 8.82996 16.5C6.70822 16.5 4.67302 15.6575 3.17273 14.1572C1.67244 12.6569 0.829956 10.6217 0.829956 8.5C0.829956 6.37827 1.67244 4.34306 3.17273 2.84277C4.67302 1.34248 6.70822 0.5 8.82996 0.5ZM8.82996 2C7.10605 2 5.45226 2.68433 4.23328 3.90332C3.01429 5.12231 2.32996 6.77609 2.32996 8.5C2.32996 10.2239 3.01429 11.8777 4.23328 13.0967C5.45226 14.3157 7.10605 15 8.82996 15C10.5539 15 12.2076 14.3157 13.4266 13.0967C14.6456 11.8777 15.33 10.2239 15.33 8.5C15.33 6.77609 14.6456 5.12231 13.4266 3.90332C12.2076 2.68433 10.5539 2 8.82996 2ZM8.82996 3.75C9.02886 3.75 9.21958 3.82909 9.36023 3.96973C9.50088 4.11038 9.57996 4.30109 9.57996 4.5V10.4404L10.7753 9.24512C10.8439 9.17148 10.9265 9.11227 11.0184 9.07129C11.1104 9.0303 11.2097 9.00862 11.3104 9.00684C11.411 9.00506 11.5111 9.02291 11.6044 9.06055C11.6978 9.09826 11.7832 9.15438 11.8544 9.22559C11.9256 9.2968 11.9817 9.3822 12.0194 9.47559C12.0571 9.5689 12.0749 9.66892 12.0731 9.76953C12.0713 9.87023 12.0497 9.96953 12.0087 10.0615C11.9677 10.1535 11.9085 10.236 11.8348 10.3047L8.82996 13.3105L8.30164 12.7832L8.29675 12.7783L5.82507 10.3047C5.68479 10.1642 5.60545 9.97395 5.60535 9.77539C5.60535 9.57665 5.68463 9.38574 5.82507 9.24512C5.9657 9.10467 6.1566 9.02539 6.35535 9.02539C6.55392 9.02548 6.74411 9.10482 6.88464 9.24512L8.07996 10.4395V4.5C8.07996 4.3011 8.15904 4.11038 8.29968 3.96973C8.44033 3.82908 8.63106 3.75001 8.82996 3.75Z" fill="#B3B3B3"/>
</svg>
