<svg width="17" height="4" viewBox="0 0 17 4" fill="none" xmlns="http://www.w3.org/2000/svg">
<path d="M2 0.5C2.82843 0.5 3.5 1.17157 3.5 2C3.5 2.82843 2.82843 3.5 2 3.5C1.17157 3.5 0.5 2.82843 0.5 2C0.5 1.17157 1.17157 0.5 2 0.5ZM8.5 0.5C9.32843 0.5 10 1.17157 10 2C10 2.82843 9.32843 3.5 8.5 3.5C7.67157 3.5 7 2.82843 7 2C7 1.17157 7.67157 0.5 8.5 0.5ZM15 0.5C15.8284 0.5 16.5 1.17157 16.5 2C16.5 2.82843 15.8284 3.5 15 3.5C14.1716 3.5 13.5 2.82843 13.5 2C13.5 1.17157 14.1716 0.5 15 0.5Z" fill="#B3B3B3"/>
</svg>
