<svg width="17" height="17" viewBox="0 0 17 17" fill="none" xmlns="http://www.w3.org/2000/svg">
<mask id="path-1-inside-1_337_1051" fill="white">
<path d="M8.80957 6.9668C9.40917 6.96692 9.98525 7.20487 10.4102 7.62793C10.8371 8.05339 11.0771 8.63158 11.0771 9.23438V9.83496C11.077 10.4364 10.8373 11.0131 10.4111 11.4375L10.126 11.7227C10.0711 11.7773 10.0402 11.8513 10.04 11.9287C10.0401 11.9741 10.0509 12.0199 10.0713 12.0605L10.2021 12.3223C10.3505 12.6173 10.5911 12.8567 10.8867 13.0039L11.3193 13.2188L12.1729 13.6445C12.3425 13.729 12.4985 13.84 12.6328 13.9736L12.6396 13.9814C12.9681 14.3086 13.1533 14.7532 13.1533 15.2168C13.1532 15.7808 12.693 16.2329 12.1348 16.2334H4.86914C4.3107 16.2332 3.85066 15.7809 3.85059 15.2168C3.85059 14.7531 4.03564 14.3086 4.36426 13.9814L4.37109 13.9736C4.50547 13.8399 4.66135 13.729 4.83105 13.6445L5.68457 13.2188L6.11719 13.0039C6.41279 12.8567 6.65348 12.6174 6.80176 12.3223L6.93262 12.0605C6.95298 12.02 6.96385 11.9741 6.96387 11.9287C6.96375 11.8514 6.93262 11.7773 6.87793 11.7227L6.59277 11.4375C6.16649 11.0131 5.92593 10.4365 5.92578 9.83496V9.23438C5.92586 8.63144 6.16657 8.05342 6.59375 7.62793C7.01875 7.20486 7.59465 6.9668 8.19434 6.9668H8.80957ZM8.19434 7.9668C7.85923 7.9668 7.53737 8.09962 7.2998 8.33594C7.06091 8.5738 6.92586 8.89726 6.92578 9.23438V9.83496C6.92593 10.1705 7.06004 10.4927 7.29785 10.7295L7.58398 11.0137C7.82711 11.256 7.96375 11.5855 7.96387 11.9287C7.96385 12.1299 7.91736 12.329 7.82715 12.5088L7.69531 12.7705C7.45004 13.2589 7.05263 13.6547 6.56348 13.8984L6.12988 14.1143L5.27637 14.5391C5.20278 14.5757 5.13545 14.6247 5.07715 14.6826L5.06934 14.6895C4.9292 14.829 4.85059 15.019 4.85059 15.2168C4.8506 15.2192 4.85111 15.2206 4.85156 15.2217C4.85221 15.2231 4.85344 15.2255 4.85547 15.2275C4.85757 15.2296 4.86025 15.2316 4.8623 15.2324C4.86395 15.233 4.86642 15.2334 4.86914 15.2334H12.1348C12.1375 15.2333 12.14 15.2331 12.1416 15.2324C12.1437 15.2315 12.1464 15.2296 12.1484 15.2275C12.1505 15.2254 12.1517 15.2231 12.1523 15.2217C12.1528 15.2206 12.1533 15.2191 12.1533 15.2168C12.1533 15.0192 12.0745 14.829 11.9346 14.6895L11.9268 14.6826C11.8685 14.6247 11.801 14.5757 11.7275 14.5391L10.874 14.1143L10.4404 13.8984C9.95122 13.6547 9.55393 13.2589 9.30859 12.7705L9.17676 12.5088C9.08651 12.329 9.04006 12.1299 9.04004 11.9287C9.04015 11.5853 9.17661 11.256 9.41992 11.0137L9.70605 10.7295C9.94376 10.4927 10.077 10.1704 10.0771 9.83496V9.23438C10.0771 8.8974 9.94281 8.57377 9.7041 8.33594C9.46663 8.09962 9.14459 7.96692 8.80957 7.9668H8.19434ZM4.9082 0.766602C5.30106 0.766674 5.69001 0.858428 6.04102 1.0332C6.52996 1.27676 6.92923 1.67395 7.1748 2.16309C7.3514 2.51492 7.44334 2.90321 7.44336 3.29688V3.33301C7.44336 3.75064 7.34556 4.16289 7.1582 4.53613L6.96387 4.92285C6.878 5.09386 6.76438 5.25078 6.62988 5.38477C6.30236 5.71095 5.85397 5.90027 5.3877 5.90039V4.90039C5.58542 4.90027 5.78086 4.81814 5.92383 4.67578C5.98306 4.61675 6.03342 4.54798 6.07031 4.47461L6.26465 4.08691C6.38201 3.85298 6.44336 3.59473 6.44336 3.33301V3.29688C6.44334 3.05895 6.38799 2.82397 6.28125 2.61133C6.13319 2.31653 5.89098 2.07626 5.59473 1.92871C5.38156 1.8226 5.14558 1.76667 4.9082 1.7666H4.8291C4.59172 1.76667 4.35575 1.8226 4.14258 1.92871C3.84638 2.07627 3.60408 2.31656 3.45605 2.61133C3.34933 2.82396 3.29397 3.05897 3.29395 3.29688V3.33301C3.29395 3.59471 3.35531 3.85299 3.47266 4.08691L3.66699 4.47461C3.70398 4.5483 3.75312 4.61562 3.81152 4.67383L3.81836 4.68066C4.14686 5.00788 4.33104 5.45333 4.33105 5.91699C4.33091 6.42302 4.04474 6.88568 3.5918 7.11133L3.0166 7.39746L2.30664 7.75098C2.13803 7.83497 1.98406 7.94618 1.85059 8.0791C1.7168 8.21238 1.60524 8.3664 1.52051 8.53516L1.26953 9.0332H4.34961V10.0332H1.13672C0.629985 10.0331 0.21875 9.622 0.21875 9.11523C0.21881 8.9725 0.252409 8.83169 0.316406 8.7041L0.625977 8.08691C0.759003 7.82191 0.934455 7.57938 1.14453 7.37012C1.35394 7.16157 1.59584 6.98826 1.86035 6.85645L2.57129 6.50195L3.14551 6.21582C3.25898 6.15931 3.33091 6.04373 3.33105 5.91699C3.33104 5.71926 3.25237 5.52921 3.1123 5.38965L3.10547 5.38281C2.97088 5.24873 2.8587 5.0936 2.77344 4.92383L2.5791 4.53613C2.39179 4.16292 2.29395 3.75059 2.29395 3.33301V3.29688C2.29397 2.90319 2.38589 2.51493 2.5625 2.16309C2.80807 1.67388 3.20729 1.27678 3.69629 1.0332C4.04735 0.85837 4.43618 0.766672 4.8291 0.766602H4.9082ZM12.1709 0.766602C12.5639 0.766653 12.9526 0.858352 13.3037 1.0332C13.7927 1.27677 14.1919 1.67386 14.4375 2.16309C14.6141 2.51494 14.706 2.90318 14.7061 3.29688V3.33301C14.7061 3.7506 14.6082 4.16291 14.4209 4.53613L14.2266 4.92383C14.1413 5.09363 14.0291 5.24871 13.8945 5.38281L13.8877 5.38965C13.7476 5.52921 13.669 5.71926 13.6689 5.91699C13.6691 6.04373 13.741 6.15931 13.8545 6.21582L14.4287 6.50195L15.1396 6.85645C15.4042 6.98826 15.646 7.16155 15.8555 7.37012C16.0656 7.5794 16.241 7.82189 16.374 8.08691L16.6836 8.7041C16.7476 8.8317 16.7812 8.97248 16.7812 9.11523C16.7812 9.62204 16.3701 10.0331 15.8633 10.0332H12.6504V9.0332H15.7305L15.4795 8.53516C15.3947 8.36638 15.2832 8.21239 15.1494 8.0791C15.0159 7.94615 14.862 7.83498 14.6934 7.75098L13.9834 7.39746L13.4082 7.11133C12.9553 6.88568 12.6691 6.42302 12.6689 5.91699C12.669 5.45333 12.8531 5.00788 13.1816 4.68066L13.1885 4.67383C13.2469 4.61561 13.296 4.54833 13.333 4.47461L13.5273 4.08691C13.6447 3.85298 13.7061 3.59473 13.7061 3.33301V3.29688C13.706 3.05895 13.6507 2.82397 13.5439 2.61133C13.3959 2.31653 13.1537 2.07626 12.8574 1.92871C12.6442 1.82258 12.4083 1.76665 12.1709 1.7666H12.0918C11.8544 1.76667 11.6185 1.82257 11.4053 1.92871C11.109 2.07626 10.8668 2.31651 10.7188 2.61133C10.612 2.82397 10.5567 3.05895 10.5566 3.29688V3.33301C10.5566 3.59473 10.618 3.85298 10.7354 4.08691L10.9297 4.47461C10.9666 4.54799 11.0169 4.61674 11.0762 4.67578C11.2191 4.81818 11.4146 4.90027 11.6123 4.90039V5.90039C11.146 5.90027 10.6976 5.71099 10.3701 5.38477C10.2356 5.25077 10.122 5.09387 10.0361 4.92285L9.8418 4.53613C9.65444 4.16289 9.55664 3.75064 9.55664 3.33301V3.29688C9.55666 2.90321 9.64861 2.51492 9.8252 2.16309C10.0708 1.67393 10.47 1.27677 10.959 1.0332C11.31 0.858397 11.6989 0.766674 12.0918 0.766602H12.1709Z"/>
</mask>
<path d="M8.80957 6.9668C9.40917 6.96692 9.98525 7.20487 10.4102 7.62793C10.8371 8.05339 11.0771 8.63158 11.0771 9.23438V9.83496C11.077 10.4364 10.8373 11.0131 10.4111 11.4375L10.126 11.7227C10.0711 11.7773 10.0402 11.8513 10.04 11.9287C10.0401 11.9741 10.0509 12.0199 10.0713 12.0605L10.2021 12.3223C10.3505 12.6173 10.5911 12.8567 10.8867 13.0039L11.3193 13.2188L12.1729 13.6445C12.3425 13.729 12.4985 13.84 12.6328 13.9736L12.6396 13.9814C12.9681 14.3086 13.1533 14.7532 13.1533 15.2168C13.1532 15.7808 12.693 16.2329 12.1348 16.2334H4.86914C4.3107 16.2332 3.85066 15.7809 3.85059 15.2168C3.85059 14.7531 4.03564 14.3086 4.36426 13.9814L4.37109 13.9736C4.50547 13.8399 4.66135 13.729 4.83105 13.6445L5.68457 13.2188L6.11719 13.0039C6.41279 12.8567 6.65348 12.6174 6.80176 12.3223L6.93262 12.0605C6.95298 12.02 6.96385 11.9741 6.96387 11.9287C6.96375 11.8514 6.93262 11.7773 6.87793 11.7227L6.59277 11.4375C6.16649 11.0131 5.92593 10.4365 5.92578 9.83496V9.23438C5.92586 8.63144 6.16657 8.05342 6.59375 7.62793C7.01875 7.20486 7.59465 6.9668 8.19434 6.9668H8.80957ZM8.19434 7.9668C7.85923 7.9668 7.53737 8.09962 7.2998 8.33594C7.06091 8.5738 6.92586 8.89726 6.92578 9.23438V9.83496C6.92593 10.1705 7.06004 10.4927 7.29785 10.7295L7.58398 11.0137C7.82711 11.256 7.96375 11.5855 7.96387 11.9287C7.96385 12.1299 7.91736 12.329 7.82715 12.5088L7.69531 12.7705C7.45004 13.2589 7.05263 13.6547 6.56348 13.8984L6.12988 14.1143L5.27637 14.5391C5.20278 14.5757 5.13545 14.6247 5.07715 14.6826L5.06934 14.6895C4.9292 14.829 4.85059 15.019 4.85059 15.2168C4.8506 15.2192 4.85111 15.2206 4.85156 15.2217C4.85221 15.2231 4.85344 15.2255 4.85547 15.2275C4.85757 15.2296 4.86025 15.2316 4.8623 15.2324C4.86395 15.233 4.86642 15.2334 4.86914 15.2334H12.1348C12.1375 15.2333 12.14 15.2331 12.1416 15.2324C12.1437 15.2315 12.1464 15.2296 12.1484 15.2275C12.1505 15.2254 12.1517 15.2231 12.1523 15.2217C12.1528 15.2206 12.1533 15.2191 12.1533 15.2168C12.1533 15.0192 12.0745 14.829 11.9346 14.6895L11.9268 14.6826C11.8685 14.6247 11.801 14.5757 11.7275 14.5391L10.874 14.1143L10.4404 13.8984C9.95122 13.6547 9.55393 13.2589 9.30859 12.7705L9.17676 12.5088C9.08651 12.329 9.04006 12.1299 9.04004 11.9287C9.04015 11.5853 9.17661 11.256 9.41992 11.0137L9.70605 10.7295C9.94376 10.4927 10.077 10.1704 10.0771 9.83496V9.23438C10.0771 8.8974 9.94281 8.57377 9.7041 8.33594C9.46663 8.09962 9.14459 7.96692 8.80957 7.9668H8.19434ZM4.9082 0.766602C5.30106 0.766674 5.69001 0.858428 6.04102 1.0332C6.52996 1.27676 6.92923 1.67395 7.1748 2.16309C7.3514 2.51492 7.44334 2.90321 7.44336 3.29688V3.33301C7.44336 3.75064 7.34556 4.16289 7.1582 4.53613L6.96387 4.92285C6.878 5.09386 6.76438 5.25078 6.62988 5.38477C6.30236 5.71095 5.85397 5.90027 5.3877 5.90039V4.90039C5.58542 4.90027 5.78086 4.81814 5.92383 4.67578C5.98306 4.61675 6.03342 4.54798 6.07031 4.47461L6.26465 4.08691C6.38201 3.85298 6.44336 3.59473 6.44336 3.33301V3.29688C6.44334 3.05895 6.38799 2.82397 6.28125 2.61133C6.13319 2.31653 5.89098 2.07626 5.59473 1.92871C5.38156 1.8226 5.14558 1.76667 4.9082 1.7666H4.8291C4.59172 1.76667 4.35575 1.8226 4.14258 1.92871C3.84638 2.07627 3.60408 2.31656 3.45605 2.61133C3.34933 2.82396 3.29397 3.05897 3.29395 3.29688V3.33301C3.29395 3.59471 3.35531 3.85299 3.47266 4.08691L3.66699 4.47461C3.70398 4.5483 3.75312 4.61562 3.81152 4.67383L3.81836 4.68066C4.14686 5.00788 4.33104 5.45333 4.33105 5.91699C4.33091 6.42302 4.04474 6.88568 3.5918 7.11133L3.0166 7.39746L2.30664 7.75098C2.13803 7.83497 1.98406 7.94618 1.85059 8.0791C1.7168 8.21238 1.60524 8.3664 1.52051 8.53516L1.26953 9.0332H4.34961V10.0332H1.13672C0.629985 10.0331 0.21875 9.622 0.21875 9.11523C0.21881 8.9725 0.252409 8.83169 0.316406 8.7041L0.625977 8.08691C0.759003 7.82191 0.934455 7.57938 1.14453 7.37012C1.35394 7.16157 1.59584 6.98826 1.86035 6.85645L2.57129 6.50195L3.14551 6.21582C3.25898 6.15931 3.33091 6.04373 3.33105 5.91699C3.33104 5.71926 3.25237 5.52921 3.1123 5.38965L3.10547 5.38281C2.97088 5.24873 2.8587 5.0936 2.77344 4.92383L2.5791 4.53613C2.39179 4.16292 2.29395 3.75059 2.29395 3.33301V3.29688C2.29397 2.90319 2.38589 2.51493 2.5625 2.16309C2.80807 1.67388 3.20729 1.27678 3.69629 1.0332C4.04735 0.85837 4.43618 0.766672 4.8291 0.766602H4.9082ZM12.1709 0.766602C12.5639 0.766653 12.9526 0.858352 13.3037 1.0332C13.7927 1.27677 14.1919 1.67386 14.4375 2.16309C14.6141 2.51494 14.706 2.90318 14.7061 3.29688V3.33301C14.7061 3.7506 14.6082 4.16291 14.4209 4.53613L14.2266 4.92383C14.1413 5.09363 14.0291 5.24871 13.8945 5.38281L13.8877 5.38965C13.7476 5.52921 13.669 5.71926 13.6689 5.91699C13.6691 6.04373 13.741 6.15931 13.8545 6.21582L14.4287 6.50195L15.1396 6.85645C15.4042 6.98826 15.646 7.16155 15.8555 7.37012C16.0656 7.5794 16.241 7.82189 16.374 8.08691L16.6836 8.7041C16.7476 8.8317 16.7812 8.97248 16.7812 9.11523C16.7812 9.62204 16.3701 10.0331 15.8633 10.0332H12.6504V9.0332H15.7305L15.4795 8.53516C15.3947 8.36638 15.2832 8.21239 15.1494 8.0791C15.0159 7.94615 14.862 7.83498 14.6934 7.75098L13.9834 7.39746L13.4082 7.11133C12.9553 6.88568 12.6691 6.42302 12.6689 5.91699C12.669 5.45333 12.8531 5.00788 13.1816 4.68066L13.1885 4.67383C13.2469 4.61561 13.296 4.54833 13.333 4.47461L13.5273 4.08691C13.6447 3.85298 13.7061 3.59473 13.7061 3.33301V3.29688C13.706 3.05895 13.6507 2.82397 13.5439 2.61133C13.3959 2.31653 13.1537 2.07626 12.8574 1.92871C12.6442 1.82258 12.4083 1.76665 12.1709 1.7666H12.0918C11.8544 1.76667 11.6185 1.82257 11.4053 1.92871C11.109 2.07626 10.8668 2.31651 10.7188 2.61133C10.612 2.82397 10.5567 3.05895 10.5566 3.29688V3.33301C10.5566 3.59473 10.618 3.85298 10.7354 4.08691L10.9297 4.47461C10.9666 4.54799 11.0169 4.61674 11.0762 4.67578C11.2191 4.81818 11.4146 4.90027 11.6123 4.90039V5.90039C11.146 5.90027 10.6976 5.71099 10.3701 5.38477C10.2356 5.25077 10.122 5.09387 10.0361 4.92285L9.8418 4.53613C9.65444 4.16289 9.55664 3.75064 9.55664 3.33301V3.29688C9.55666 2.90321 9.64861 2.51492 9.8252 2.16309C10.0708 1.67393 10.47 1.27677 10.959 1.0332C11.31 0.858397 11.6989 0.766674 12.0918 0.766602H12.1709Z" fill="white"/>
<path d="M8.80957 6.9668L8.80982 5.7668H8.80957V6.9668ZM10.4102 7.62793L11.2572 6.77788L11.2568 6.77756L10.4102 7.62793ZM11.0771 9.23438H12.2771V9.23423L11.0771 9.23438ZM11.0771 9.83496L12.2771 9.83526V9.83496H11.0771ZM10.4111 11.4375L9.56436 10.5872L9.5626 10.589L10.4111 11.4375ZM10.126 11.7227L10.9728 12.5729L10.9745 12.5712L10.126 11.7227ZM10.04 11.9287L8.84004 11.927L8.84004 11.9293L10.04 11.9287ZM10.0713 12.0605L11.1446 11.5239L11.1437 11.522L10.0713 12.0605ZM10.2021 12.3223L9.12883 12.8589L9.13002 12.8613L10.2021 12.3223ZM10.8867 13.0039L10.3519 14.0782L10.353 14.0787L10.8867 13.0039ZM11.3193 13.2188L11.855 12.1449L11.8531 12.144L11.3193 13.2188ZM12.1729 13.6445L11.6372 14.7183L11.6378 14.7186L12.1729 13.6445ZM12.6328 13.9736L13.5359 13.1834L13.5087 13.1523L13.4793 13.1231L12.6328 13.9736ZM12.6396 13.9814L11.7366 14.7717L11.7636 14.8026L11.7928 14.8316L12.6396 13.9814ZM13.1533 15.2168L14.3533 15.2169V15.2168H13.1533ZM12.1348 16.2334V17.4334L12.1357 17.4334L12.1348 16.2334ZM4.86914 16.2334L4.86872 17.4334H4.86914V16.2334ZM3.85059 15.2168H2.65059V15.2169L3.85059 15.2168ZM4.36426 13.9814L5.21094 14.8318L5.24018 14.8027L5.26735 14.7717L4.36426 13.9814ZM4.37109 13.9736L3.52469 13.123L3.4953 13.1522L3.468 13.1834L4.37109 13.9736ZM4.83105 13.6445L5.36584 14.7188L5.36673 14.7183L4.83105 13.6445ZM5.68457 13.2188L5.15083 12.144L5.1489 12.1449L5.68457 13.2188ZM6.11719 13.0039L6.65093 14.0787L6.65223 14.078L6.11719 13.0039ZM6.80176 12.3223L7.874 12.8611L7.87507 12.8589L6.80176 12.3223ZM6.93262 12.0605L5.86007 11.5224L5.8593 11.5239L6.93262 12.0605ZM6.96387 11.9287L8.16387 11.9293L8.16387 11.927L6.96387 11.9287ZM6.87793 11.7227L6.0294 12.5712L6.02985 12.5716L6.87793 11.7227ZM6.59277 11.4375L7.4413 10.589L7.43945 10.5871L6.59277 11.4375ZM5.92578 9.83496H4.72578L4.72578 9.83526L5.92578 9.83496ZM5.92578 9.23438L4.72578 9.23423V9.23438H5.92578ZM6.59375 7.62793L5.74716 6.77747L5.7469 6.77772L6.59375 7.62793ZM7.2998 8.33594L6.45352 7.48517L6.45313 7.48556L7.2998 8.33594ZM6.92578 9.23438L5.72578 9.23411V9.23438H6.92578ZM6.92578 9.83496H5.72578L5.72578 9.8355L6.92578 9.83496ZM7.29785 10.7295L6.45117 11.5799L6.45223 11.5809L7.29785 10.7295ZM7.58398 11.0137L8.43106 10.1637L8.4296 10.1622L7.58398 11.0137ZM7.96387 11.9287L9.16387 11.9288V11.9283L7.96387 11.9287ZM7.82715 12.5088L8.89886 13.0486L8.89968 13.047L7.82715 12.5088ZM7.69531 12.7705L6.6236 12.2307L6.62294 12.232L7.69531 12.7705ZM6.56348 13.8984L7.0982 14.9727L7.09868 14.9725L6.56348 13.8984ZM6.12988 14.1143L6.66457 15.1886L6.6646 15.1885L6.12988 14.1143ZM5.27637 14.5391L4.74168 13.4648L4.74158 13.4648L5.27637 14.5391ZM5.07715 14.6826L5.86735 15.5857L5.89605 15.5606L5.9231 15.5337L5.07715 14.6826ZM5.06934 14.6895L4.27913 13.7864L4.25004 13.8118L4.22266 13.8391L5.06934 14.6895ZM4.85059 15.2168H3.65055L3.65062 15.2259L4.85059 15.2168ZM4.85156 15.2217L3.74523 15.6865L3.74948 15.6966L3.75392 15.7066L4.85156 15.2217ZM4.85547 15.2275L4.00836 16.0775L4.01506 16.0842L4.02186 16.0907L4.85547 15.2275ZM4.8623 15.2324L4.39619 16.3382L4.43062 16.3527L4.46588 16.365L4.8623 15.2324ZM4.86914 15.2334L4.85295 16.4333L4.86104 16.4334H4.86914V15.2334ZM12.1348 15.2334V16.4334H12.1475L12.1602 16.4331L12.1348 15.2334ZM12.1416 15.2324L12.5986 16.342L12.6197 16.3333L12.6404 16.3238L12.1416 15.2324ZM12.1484 15.2275L12.9944 16.0786L13.0007 16.0723L13.0069 16.066L12.1484 15.2275ZM12.1523 15.2217L13.2562 15.6924L13.2593 15.685L12.1523 15.2217ZM12.1533 15.2168L13.3533 15.2254V15.2168H12.1533ZM11.9346 14.6895L12.7817 13.8396L12.7541 13.812L12.7248 13.7864L11.9346 14.6895ZM11.9268 14.6826L11.0805 15.5335L11.1077 15.5605L11.1366 15.5857L11.9268 14.6826ZM11.7275 14.5391L12.263 13.4652L12.2622 13.4648L11.7275 14.5391ZM10.874 14.1143L10.3393 15.1885L10.3393 15.1886L10.874 14.1143ZM10.4404 13.8984L9.90538 14.9726L9.90571 14.9727L10.4404 13.8984ZM9.30859 12.7705L10.3809 12.2318L10.3803 12.2307L9.30859 12.7705ZM9.17676 12.5088L8.10427 13.0471L8.10505 13.0486L9.17676 12.5088ZM9.04004 11.9287L7.84004 11.9283L7.84004 11.9288L9.04004 11.9287ZM9.41992 11.0137L8.5743 10.1622L8.57313 10.1634L9.41992 11.0137ZM9.70605 10.7295L10.5517 11.5809L10.5529 11.5797L9.70605 10.7295ZM10.0771 9.83496L11.2771 9.8355V9.83496H10.0771ZM10.0771 9.23438H11.2771V9.23411L10.0771 9.23438ZM9.7041 8.33594L10.5511 7.48585L10.5506 7.48533L9.7041 8.33594ZM8.80957 7.9668L8.81001 6.7668H8.80957V7.9668ZM4.9082 0.766602L4.90842 -0.433398H4.9082V0.766602ZM6.04102 1.0332L6.57606 -0.0409155L6.57588 -0.0410019L6.04102 1.0332ZM7.1748 2.16309L8.24729 1.62479L8.24724 1.62467L7.1748 2.16309ZM7.44336 3.29688H8.64336V3.29681L7.44336 3.29688ZM7.1582 4.53613L8.23043 5.07495L8.23067 5.07448L7.1582 4.53613ZM6.96387 4.92285L5.89164 4.38403L5.89146 4.38438L6.96387 4.92285ZM6.62988 5.38477L7.47668 6.23502L7.47678 6.23492L6.62988 5.38477ZM5.3877 5.90039H4.1877V7.10071L5.38801 7.10039L5.3877 5.90039ZM5.3877 4.90039L5.38694 3.70039L4.1877 3.70114V4.90039H5.3877ZM5.92383 4.67578L6.77056 5.52611L6.7709 5.52577L5.92383 4.67578ZM6.07031 4.47461L7.14244 5.01364L7.14308 5.01235L6.07031 4.47461ZM6.26465 4.08691L5.19206 3.54881L5.19188 3.54918L6.26465 4.08691ZM6.44336 3.29688H7.64336L7.64336 3.29677L6.44336 3.29688ZM6.28125 2.61133L7.35371 2.07298L7.3536 2.07276L6.28125 2.61133ZM5.59473 1.92871L6.12969 0.854555L6.12947 0.854444L5.59473 1.92871ZM4.9082 1.7666L4.90857 0.566602H4.9082V1.7666ZM4.8291 1.7666V0.566601L4.82874 0.566602L4.8291 1.7666ZM4.14258 1.92871L3.60782 0.85445L3.60749 0.854615L4.14258 1.92871ZM3.45605 2.61133L2.38368 2.0728L2.38357 2.07301L3.45605 2.61133ZM3.29395 3.29688L2.09395 3.29677V3.29688H3.29395ZM3.47266 4.08691L4.54543 3.54918L4.54526 3.54885L3.47266 4.08691ZM3.66699 4.47461L2.59422 5.01235L2.59453 5.01296L3.66699 4.47461ZM3.81152 4.67383L4.66005 3.8253L4.65865 3.8239L3.81152 4.67383ZM3.81836 4.68066L2.96983 5.52919L2.97149 5.53085L3.81836 4.68066ZM4.33105 5.91699L5.53105 5.91734L5.53105 5.91695L4.33105 5.91699ZM3.5918 7.11133L4.12626 8.18573L4.12689 8.18542L3.5918 7.11133ZM3.0166 7.39746L2.48214 6.32306L2.48172 6.32326L3.0166 7.39746ZM2.30664 7.75098L1.77176 6.67678L1.77157 6.67687L2.30664 7.75098ZM1.85059 8.0791L1.00381 7.22883L1.00368 7.22896L1.85059 8.0791ZM1.52051 8.53516L2.59214 9.07517L2.59291 9.07363L1.52051 8.53516ZM1.26953 9.0332L0.197905 8.49319L-0.678927 10.2332H1.26953V9.0332ZM4.34961 9.0332H5.54961V7.8332H4.34961V9.0332ZM4.34961 10.0332V11.2332H5.54961V10.0332H4.34961ZM1.13672 10.0332L1.13643 11.2332H1.13672V10.0332ZM0.21875 9.11523L-0.98125 9.11473V9.11523H0.21875ZM0.316406 8.7041L1.38903 9.24213L1.38904 9.24212L0.316406 8.7041ZM0.625977 8.08691L-0.446488 7.54856L-0.446656 7.5489L0.625977 8.08691ZM1.14453 7.37012L0.297757 6.51984L0.297641 6.51995L1.14453 7.37012ZM1.86035 6.85645L2.39556 7.93048L2.39583 7.93035L1.86035 6.85645ZM2.57129 6.50195L2.03609 5.42791L2.03581 5.42805L2.57129 6.50195ZM3.14551 6.21582L2.61054 5.14166L2.61031 5.14178L3.14551 6.21582ZM3.33105 5.91699L4.53105 5.91839L4.53105 5.91689L3.33105 5.91699ZM3.1123 5.38965L2.26378 6.23818L2.2653 6.2397L3.1123 5.38965ZM3.10547 5.38281L3.954 4.53428L3.95242 4.53271L3.10547 5.38281ZM2.77344 4.92383L1.70067 5.46157L1.70107 5.46236L2.77344 4.92383ZM2.5791 4.53613L3.65187 3.9984L3.6516 3.99785L2.5791 4.53613ZM2.29395 3.29688L1.09395 3.29681V3.29688H2.29395ZM2.5625 2.16309L1.49004 1.62474L1.49002 1.62476L2.5625 2.16309ZM3.69629 1.0332L3.16134 -0.0409604L3.16125 -0.0409163L3.69629 1.0332ZM4.8291 0.766602V-0.433398H4.82889L4.8291 0.766602ZM12.1709 0.766602L12.1711 -0.433398H12.1709V0.766602ZM13.3037 1.0332L13.8387 -0.0409394L13.8387 -0.0409604L13.3037 1.0332ZM14.4375 2.16309L15.51 1.62474L15.51 1.62473L14.4375 2.16309ZM14.7061 3.29688H15.9061V3.29681L14.7061 3.29688ZM14.4209 4.53613L13.3484 3.99783L13.3481 3.9984L14.4209 4.53613ZM14.2266 4.92383L15.2989 5.46236L15.2993 5.46157L14.2266 4.92383ZM13.8945 5.38281L13.0476 4.53267L13.046 4.53428L13.8945 5.38281ZM13.8877 5.38965L14.7347 6.2397L14.7362 6.23818L13.8877 5.38965ZM13.6689 5.91699L12.4689 5.91689L12.4689 5.91839L13.6689 5.91699ZM13.8545 6.21582L14.3897 5.14178L14.3895 5.14166L13.8545 6.21582ZM14.4287 6.50195L14.9642 5.42805L14.9639 5.42791L14.4287 6.50195ZM15.1396 6.85645L14.6042 7.93035L14.6045 7.9305L15.1396 6.85645ZM15.8555 7.37012L16.7023 6.51993L16.7022 6.51984L15.8555 7.37012ZM16.374 8.08691L17.4467 7.5489L17.4465 7.54856L16.374 8.08691ZM16.6836 8.7041L15.611 9.24212L15.611 9.24218L16.6836 8.7041ZM16.7812 9.11523H17.9813V9.11473L16.7812 9.11523ZM15.8633 10.0332V11.2332H15.8634L15.8633 10.0332ZM12.6504 10.0332H11.4504V11.2332H12.6504V10.0332ZM12.6504 9.0332V7.8332H11.4504V9.0332H12.6504ZM15.7305 9.0332V10.2332H17.6789L16.8021 8.49319L15.7305 9.0332ZM15.4795 8.53516L14.4071 9.07364L14.4079 9.07517L15.4795 8.53516ZM15.1494 8.0791L15.9963 7.22892L15.9962 7.22883L15.1494 8.0791ZM14.6934 7.75098L15.2284 6.67684L15.2282 6.67678L14.6934 7.75098ZM13.9834 7.39746L14.5183 6.32326L14.5179 6.32306L13.9834 7.39746ZM13.4082 7.11133L12.8731 8.18542L12.8737 8.18573L13.4082 7.11133ZM12.6689 5.91699L11.4689 5.91695V5.91734L12.6689 5.91699ZM13.1816 4.68066L14.0285 5.53085L14.0302 5.52919L13.1816 4.68066ZM13.1885 4.67383L12.3414 3.82381L12.3399 3.8253L13.1885 4.67383ZM13.333 4.47461L14.4055 5.01296L14.4058 5.01235L13.333 4.47461ZM13.5273 4.08691L12.4548 3.54881L12.4546 3.54918L13.5273 4.08691ZM13.7061 3.29688H14.9061V3.29677L13.7061 3.29688ZM13.5439 2.61133L14.6164 2.07298L14.6163 2.07279L13.5439 2.61133ZM12.8574 1.92871L13.3924 0.854577L13.3922 0.854451L12.8574 1.92871ZM12.1709 1.7666L12.1712 0.566602H12.1709V1.7666ZM12.0918 1.7666V0.566601L12.0914 0.566602L12.0918 1.7666ZM11.4053 1.92871L10.8705 0.854482L10.8703 0.854555L11.4053 1.92871ZM10.7188 2.61133L9.64638 2.0728L9.64629 2.07298L10.7188 2.61133ZM10.5566 3.29688L9.35664 3.29677V3.29688H10.5566ZM10.7354 4.08691L11.8081 3.54918L11.8079 3.54882L10.7354 4.08691ZM10.9297 4.47461L9.85692 5.01235L9.85753 5.01357L10.9297 4.47461ZM11.0762 4.67578L10.2291 5.52577L10.2293 5.52601L11.0762 4.67578ZM11.6123 4.90039H12.8123V3.70114L11.6131 3.70039L11.6123 4.90039ZM11.6123 5.90039L11.612 7.10039L12.8123 7.10071V5.90039H11.6123ZM10.3701 5.38477L9.52322 6.23492L9.52328 6.23498L10.3701 5.38477ZM10.0361 4.92285L11.1085 4.38441L11.1084 4.38403L10.0361 4.92285ZM9.8418 4.53613L8.76933 5.07448L8.76957 5.07495L9.8418 4.53613ZM9.55664 3.29688L8.35664 3.29681V3.29688H9.55664ZM9.8252 2.16309L8.75275 1.62469L8.75271 1.62479L9.8252 2.16309ZM10.959 1.0332L10.4241 -0.0409788L10.4239 -0.0409155L10.959 1.0332ZM12.0918 0.766602V-0.433398H12.0916L12.0918 0.766602ZM8.80957 6.9668L8.80932 8.1668C9.09166 8.16685 9.36341 8.2791 9.56348 8.4783L10.4102 7.62793L11.2568 6.77756C10.6071 6.13063 9.72667 5.76699 8.80982 5.7668L8.80957 6.9668ZM10.4102 7.62793L9.56315 8.47798C9.76399 8.6781 9.87711 8.95039 9.87715 9.23452L11.0771 9.23438L12.2771 9.23423C12.277 8.31278 11.9103 7.42868 11.2572 6.77788L10.4102 7.62793ZM11.0771 9.23438H9.87715V9.83496H11.0771H12.2771V9.23438H11.0771ZM11.0771 9.83496L9.87715 9.83466C9.87708 10.117 9.76454 10.3879 9.56436 10.5872L10.4111 11.4375L11.2579 12.2878C11.9101 11.6383 12.2769 10.7558 12.2771 9.83526L11.0771 9.83496ZM10.4111 11.4375L9.5626 10.589L9.27745 10.8741L10.126 11.7227L10.9745 12.5712L11.2597 12.286L10.4111 11.4375ZM10.126 11.7227L9.27912 10.8725C8.99988 11.1506 8.84062 11.5292 8.84004 11.927L10.04 11.9287L11.24 11.9305C11.2397 12.1733 11.1423 12.404 10.9728 12.5729L10.126 11.7227ZM10.04 11.9287L8.84004 11.9293C8.84014 12.1611 8.89449 12.3911 8.99891 12.5991L10.0713 12.0605L11.1437 11.522C11.2073 11.6488 11.24 11.7872 11.24 11.9282L10.04 11.9287ZM10.0713 12.0605L8.99798 12.5972L9.12884 12.8589L10.2021 12.3223L11.2755 11.7856L11.1446 11.5239L10.0713 12.0605ZM10.2021 12.3223L9.13002 12.8613C9.3951 13.3885 9.8244 13.8155 10.3519 14.0782L10.8867 13.0039L11.4215 11.9297C11.3577 11.8979 11.3059 11.8461 11.2743 11.7832L10.2021 12.3223ZM10.8867 13.0039L10.353 14.0787L10.7856 14.2935L11.3193 13.2188L11.8531 12.144L11.4205 11.9291L10.8867 13.0039ZM11.3193 13.2188L10.7837 14.2926L11.6372 14.7183L12.1729 13.6445L12.7085 12.5707L11.855 12.1449L11.3193 13.2188ZM12.1729 13.6445L11.6378 14.7186C11.6957 14.7475 11.7458 14.7839 11.7863 14.8242L12.6328 13.9736L13.4793 13.1231C13.2512 12.8961 12.9893 12.7106 12.7079 12.5704L12.1729 13.6445ZM12.6328 13.9736L11.7297 14.7638L11.7366 14.7717L12.6396 13.9814L13.5427 13.1912L13.5359 13.1834L12.6328 13.9736ZM12.6396 13.9814L11.7928 14.8316C11.8959 14.9343 11.9533 15.0733 11.9533 15.2168H13.1533H14.3533C14.3533 14.4331 14.0403 13.6829 13.4865 13.1313L12.6396 13.9814ZM13.1533 15.2168L11.9533 15.2166C11.9533 15.1099 12.0382 15.0335 12.1338 15.0334L12.1348 16.2334L12.1357 17.4334C13.3478 17.4324 14.3532 16.4517 14.3533 15.2169L13.1533 15.2168ZM12.1348 16.2334V15.0334H4.86914V16.2334V17.4334H12.1348V16.2334ZM4.86914 16.2334L4.86957 15.0334C4.9659 15.0334 5.05057 15.1106 5.05059 15.2166L3.85059 15.2168L2.65059 15.2169C2.65074 16.4513 3.65549 17.433 4.86872 17.4334L4.86914 16.2334ZM3.85059 15.2168H5.05059C5.05059 15.0729 5.108 14.9343 5.21094 14.8318L4.36426 13.9814L3.51758 13.1311C2.96328 13.683 2.65059 14.4332 2.65059 15.2168H3.85059ZM4.36426 13.9814L5.26735 14.7717L5.27419 14.7638L4.37109 13.9736L3.468 13.1834L3.46117 13.1912L4.36426 13.9814ZM4.37109 13.9736L5.2175 14.8243C5.25836 14.7836 5.30838 14.7474 5.36584 14.7188L4.83105 13.6445L4.29627 12.5703C4.01432 12.7106 3.75259 12.8962 3.52469 13.123L4.37109 13.9736ZM4.83105 13.6445L5.36673 14.7183L6.22024 14.2926L5.68457 13.2188L5.1489 12.1449L4.29538 12.5707L4.83105 13.6445ZM5.68457 13.2188L6.21831 14.2935L6.65093 14.0787L6.11719 13.0039L5.58344 11.9291L5.15083 12.144L5.68457 13.2188ZM6.11719 13.0039L6.65223 14.078C7.17917 13.8155 7.60879 13.3889 7.874 12.8611L6.80176 12.3223L5.72951 11.7835C5.69817 11.8459 5.64641 11.8978 5.58215 11.9298L6.11719 13.0039ZM6.80176 12.3223L7.87507 12.8589L8.00593 12.5972L6.93262 12.0605L5.8593 11.5239L5.72845 11.7856L6.80176 12.3223ZM6.93262 12.0605L8.00517 12.5987C8.10928 12.3912 8.16376 12.1613 8.16387 11.9293L6.96387 11.9287L5.76387 11.9282C5.76393 11.7869 5.79669 11.6487 5.86007 11.5224L6.93262 12.0605ZM6.96387 11.9287L8.16387 11.927C8.16328 11.5281 8.00299 11.1504 7.72601 10.8737L6.87793 11.7227L6.02985 12.5716C5.86225 12.4042 5.76422 12.1747 5.76387 11.9305L6.96387 11.9287ZM6.87793 11.7227L7.72646 10.8741L7.4413 10.589L6.59277 11.4375L5.74425 12.286L6.0294 12.5712L6.87793 11.7227ZM6.59277 11.4375L7.43945 10.5871C7.23839 10.3869 7.12585 10.1159 7.12578 9.83466L5.92578 9.83496L4.72578 9.83526C4.72601 10.7571 5.09459 11.6392 5.74609 12.2879L6.59277 11.4375ZM5.92578 9.83496H7.12578V9.23438H5.92578H4.72578V9.83496H5.92578ZM5.92578 9.23438L7.12578 9.23452C7.12582 8.9514 7.2389 8.67904 7.4406 8.47814L6.59375 7.62793L5.7469 6.77772C5.09424 7.4278 4.7259 8.31148 4.72578 9.23423L5.92578 9.23438ZM6.59375 7.62793L7.44034 8.47839C7.64074 8.27891 7.91235 8.1668 8.19434 8.1668V6.9668V5.7668C7.27695 5.7668 6.39677 6.13082 5.74716 6.77747L6.59375 7.62793ZM8.19434 6.9668V8.1668H8.80957V6.9668V5.7668H8.19434V6.9668ZM8.19434 7.9668V6.7668C7.54207 6.7668 6.91595 7.02518 6.45352 7.48517L7.2998 8.33594L8.14609 9.1867C8.1588 9.17406 8.17639 9.1668 8.19434 9.1668V7.9668ZM7.2998 8.33594L6.45313 7.48556C5.98917 7.9475 5.72593 8.57644 5.72578 9.23411L6.92578 9.23438L8.12578 9.23464C8.12578 9.21808 8.13264 9.20009 8.14648 9.18631L7.2998 8.33594ZM6.92578 9.23438H5.72578V9.83496H6.92578H8.12578V9.23438H6.92578ZM6.92578 9.83496L5.72578 9.8355C5.72608 10.4904 5.9876 11.1183 6.45117 11.5799L7.29785 10.7295L8.14453 9.87912C8.13248 9.86712 8.12579 9.85061 8.12578 9.83442L6.92578 9.83496ZM7.29785 10.7295L6.45223 11.5809L6.73837 11.8651L7.58398 11.0137L8.4296 10.1622L8.14347 9.87806L7.29785 10.7295ZM7.58398 11.0137L6.73692 11.8637C6.7538 11.8805 6.76386 11.9041 6.76387 11.9291L7.96387 11.9287L9.16387 11.9283C9.16365 11.2668 8.90041 10.6314 8.43105 10.1637L7.58398 11.0137ZM7.96387 11.9287L6.76387 11.9286C6.76387 11.9457 6.75979 11.9603 6.75462 11.9706L7.82715 12.5088L8.89968 13.047C9.07494 12.6978 9.16383 12.314 9.16387 11.9288L7.96387 11.9287ZM7.82715 12.5088L6.75544 11.9689L6.6236 12.2307L7.69531 12.7705L8.76702 13.3104L8.89886 13.0486L7.82715 12.5088ZM7.69531 12.7705L6.62294 12.232C6.49432 12.4881 6.28559 12.6962 6.02827 12.8244L6.56348 13.8984L7.09868 14.9725C7.81967 14.6132 8.40576 14.0297 8.76769 13.309L7.69531 12.7705ZM6.56348 13.8984L6.02876 12.8242L5.59516 13.04L6.12988 14.1143L6.6646 15.1885L7.0982 14.9727L6.56348 13.8984ZM6.12988 14.1143L5.59519 13.04L4.74168 13.4648L5.27637 14.5391L5.81106 15.6134L6.66457 15.1886L6.12988 14.1143ZM5.27637 14.5391L4.74158 13.4648C4.54812 13.5611 4.37666 13.6869 4.2312 13.8315L5.07715 14.6826L5.9231 15.5337C5.89424 15.5624 5.85744 15.5903 5.81116 15.6133L5.27637 14.5391ZM5.07715 14.6826L4.28694 13.7795L4.27913 13.7864L5.06934 14.6895L5.85954 15.5925L5.86735 15.5857L5.07715 14.6826ZM5.06934 14.6895L4.22266 13.8391C3.85531 14.2048 3.65059 14.7013 3.65059 15.2168H4.85059H6.05059C6.05059 15.3367 6.00309 15.4531 5.91602 15.5398L5.06934 14.6895ZM4.85059 15.2168L3.65062 15.2259C3.65214 15.4275 3.7032 15.5864 3.74523 15.6865L4.85156 15.2217L5.9579 14.7569C5.97032 14.7865 5.99778 14.8545 6.01908 14.9452C6.04035 15.0357 6.04992 15.124 6.05055 15.2077L4.85059 15.2168ZM4.85156 15.2217L3.75392 15.7066C3.78279 15.772 3.85658 15.9262 4.00836 16.0775L4.85547 15.2275L5.70257 14.3776C5.85031 14.5248 5.92163 14.6743 5.94921 14.7367L4.85156 15.2217ZM4.85547 15.2275L4.02186 16.0907C4.07599 16.143 4.20202 16.2563 4.39619 16.3382L4.8623 15.2324L5.32842 14.1266C5.44162 14.1744 5.5221 14.2292 5.5613 14.2575C5.6078 14.291 5.65032 14.3269 5.68908 14.3644L4.85547 15.2275ZM4.8623 15.2324L4.46588 16.365C4.63405 16.4239 4.77779 16.4323 4.85295 16.4333L4.86914 15.2334L4.88534 14.0335C4.93093 14.0341 4.98162 14.0375 5.03635 14.0454C5.08637 14.0526 5.16549 14.0672 5.25873 14.0998L4.8623 15.2324ZM4.86914 15.2334V16.4334H12.1348V15.2334V14.0334H4.86914V15.2334ZM12.1348 15.2334L12.1602 16.4331C12.1638 16.4331 12.3694 16.4364 12.5986 16.342L12.1416 15.2324L11.6846 14.1229C11.8192 14.0674 11.9327 14.0499 11.9824 14.0434C12.0404 14.0357 12.0864 14.0342 12.1094 14.0337L12.1348 15.2334ZM12.1416 15.2324L12.6404 16.3238C12.7882 16.2563 12.9056 16.1669 12.9944 16.0786L12.1484 15.2275L11.3025 14.3765C11.3536 14.3257 11.4042 14.2847 11.4505 14.2518C11.4941 14.2209 11.5587 14.1794 11.6428 14.141L12.1416 15.2324ZM12.1484 15.2275L13.0069 16.066C13.141 15.9288 13.2155 15.7878 13.2562 15.6923L12.1523 15.2217L11.0485 14.751C11.088 14.6584 11.16 14.5221 11.2899 14.3891L12.1484 15.2275ZM12.1523 15.2217L13.2593 15.685C13.3009 15.5857 13.3518 15.4269 13.3533 15.2254L12.1533 15.2168L10.9534 15.2082C10.954 15.1219 10.964 15.0338 10.9847 14.9459C11.0053 14.8579 11.0317 14.7912 11.0454 14.7583L12.1523 15.2217ZM12.1533 15.2168H13.3533C13.3533 14.701 13.1481 14.2047 12.7817 13.8396L11.9346 14.6895L11.0874 15.5393C11.001 15.4532 10.9533 15.3374 10.9533 15.2168H12.1533ZM11.9346 14.6895L12.7248 13.7864L12.717 13.7795L11.9268 14.6826L11.1366 15.5857L11.1444 15.5925L11.9346 14.6895ZM11.9268 14.6826L12.773 13.8318C12.6269 13.6865 12.4552 13.561 12.263 13.4652L11.7275 14.5391L11.1921 15.613C11.1469 15.5904 11.1102 15.5629 11.0805 15.5335L11.9268 14.6826ZM11.7275 14.5391L12.2622 13.4648L11.4087 13.04L10.874 14.1143L10.3393 15.1886L11.1929 15.6134L11.7275 14.5391ZM10.874 14.1143L11.4087 13.04L10.9751 12.8242L10.4404 13.8984L9.90571 14.9727L10.3393 15.1885L10.874 14.1143ZM10.4404 13.8984L10.9755 12.8243C10.7184 12.6963 10.5097 12.4883 10.3809 12.2318L9.30859 12.7705L8.23629 13.3092C8.59816 14.0295 9.184 14.6132 9.90538 14.9726L10.4404 13.8984ZM9.30859 12.7705L10.3803 12.2307L10.2485 11.9689L9.17676 12.5088L8.10505 13.0486L8.23689 13.3104L9.30859 12.7705ZM9.17676 12.5088L10.2492 11.9705C10.2441 11.9603 10.24 11.9458 10.24 11.9286L9.04004 11.9287L7.84004 11.9288C7.84008 12.314 7.92891 12.6977 8.10427 13.0471L9.17676 12.5088ZM9.04004 11.9287L10.24 11.9291C10.24 11.9037 10.2501 11.8805 10.2667 11.8639L9.41992 11.0137L8.57313 10.1634C8.10311 10.6315 7.84026 11.2669 7.84004 11.9283L9.04004 11.9287ZM9.41992 11.0137L10.2655 11.8651L10.5517 11.5809L9.70605 10.7295L8.86044 9.87806L8.5743 10.1622L9.41992 11.0137ZM9.70605 10.7295L10.5529 11.5797C11.0178 11.1167 11.2769 10.4882 11.2771 9.8355L10.0771 9.83496L8.87715 9.83442C8.87714 9.85274 8.86975 9.86879 8.85921 9.87928L9.70605 10.7295ZM10.0771 9.83496H11.2771V9.23438H10.0771H8.87715V9.83496H10.0771ZM10.0771 9.23438L11.2771 9.23411C11.277 8.57865 11.016 7.9491 10.5511 7.48585L9.7041 8.33594L8.85714 9.18603C8.8696 9.19844 8.87714 9.21616 8.87715 9.23464L10.0771 9.23438ZM9.7041 8.33594L10.5506 7.48533C10.0878 7.02484 9.4614 6.76704 8.81001 6.7668L8.80957 7.9668L8.80913 9.1668C8.82778 9.1668 8.84545 9.1744 8.85765 9.18654L9.7041 8.33594ZM8.80957 7.9668V6.7668H8.19434V7.9668V9.1668H8.80957V7.9668ZM4.9082 0.766602L4.90798 1.9666C5.11498 1.96664 5.32095 2.01519 5.50615 2.10741L6.04102 1.0332L6.57588 -0.0410019C6.05906 -0.298338 5.48714 -0.433292 4.90842 -0.433398L4.9082 0.766602ZM6.04102 1.0332L5.50597 2.10732C5.76314 2.23542 5.97356 2.44494 6.10237 2.7015L7.1748 2.16309L8.24724 1.62467C7.8849 0.902965 7.29678 0.318092 6.57606 -0.0409155L6.04102 1.0332ZM7.1748 2.16309L6.10231 2.70139C6.19503 2.8861 6.24335 3.09008 6.24336 3.29694L7.44336 3.29688L8.64336 3.29681C8.64333 2.71635 8.50776 2.14374 8.24729 1.62479L7.1748 2.16309ZM7.44336 3.29688H6.24336V3.33301H7.44336H8.64336V3.29688H7.44336ZM7.44336 3.33301H6.24336C6.24336 3.56345 6.18935 3.79137 6.08574 3.99778L7.1582 4.53613L8.23067 5.07448C8.50177 4.5344 8.64336 3.93783 8.64336 3.33301H7.44336ZM7.1582 4.53613L6.08598 3.99731L5.89164 4.38403L6.96387 4.92285L8.03609 5.46167L8.23043 5.07495L7.1582 4.53613ZM6.96387 4.92285L5.89146 4.38438C5.86342 4.44024 5.82588 4.49187 5.78298 4.53461L6.62988 5.38477L7.47678 6.23492C7.70287 6.00969 7.89259 5.74748 8.03627 5.46132L6.96387 4.92285ZM6.62988 5.38477L5.78308 4.53451C5.67639 4.64077 5.53075 4.70035 5.38738 4.70039L5.3877 5.90039L5.38801 7.10039C6.17718 7.10018 6.92833 6.78114 7.47668 6.23502L6.62988 5.38477ZM5.3877 5.90039H6.5877V4.90039H5.3877H4.1877V5.90039H5.3877ZM5.3877 4.90039L5.38845 6.10039C5.91199 6.10006 6.40912 5.88601 6.77056 5.52611L5.92383 4.67578L5.0771 3.82546C5.1526 3.75027 5.25884 3.70047 5.38694 3.70039L5.3877 4.90039ZM5.92383 4.67578L6.7709 5.52577C6.91719 5.37998 7.04512 5.20719 7.14244 5.01364L6.07031 4.47461L4.99819 3.93558C5.02173 3.88877 5.04893 3.85353 5.07676 3.8258L5.92383 4.67578ZM6.07031 4.47461L7.14308 5.01235L7.33742 4.62465L6.26465 4.08691L5.19188 3.54918L4.99754 3.93687L6.07031 4.47461ZM6.26465 4.08691L7.33724 4.62502C7.5381 4.22464 7.64336 3.78219 7.64336 3.33301H6.44336H5.24336C5.24336 3.40727 5.22592 3.48133 5.19206 3.54881L6.26465 4.08691ZM6.44336 3.33301H7.64336V3.29688H6.44336H5.24336V3.33301H6.44336ZM6.44336 3.29688L7.64336 3.29677C7.64332 2.87306 7.5448 2.45365 7.35371 2.07298L6.28125 2.61133L5.20879 3.14968C5.23118 3.19428 5.24335 3.24484 5.24336 3.29698L6.44336 3.29688ZM6.28125 2.61133L7.3536 2.07276C7.08794 1.54379 6.65605 1.1167 6.12969 0.854555L5.59473 1.92871L5.05976 3.00287C5.12591 3.03581 5.17845 3.08927 5.2089 3.1499L6.28125 2.61133ZM5.59473 1.92871L6.12947 0.854444C5.75177 0.666436 5.33304 0.566731 4.90857 0.566602L4.9082 1.7666L4.90784 2.9666C4.95811 2.96662 5.01135 2.97877 5.05998 3.00298L5.59473 1.92871ZM4.9082 1.7666V0.566602H4.8291V1.7666V2.9666H4.9082V1.7666ZM4.8291 1.7666L4.82874 0.566602C4.40426 0.566728 3.98554 0.666427 3.60782 0.854451L4.14258 1.92871L4.67733 3.00297C4.72597 2.97876 4.77918 2.96662 4.82946 2.9666L4.8291 1.7666ZM4.14258 1.92871L3.60749 0.854615C3.08139 1.1167 2.64938 1.54372 2.38368 2.0728L3.45605 2.61133L4.52843 3.14986C4.55879 3.0894 4.61136 3.03584 4.67767 3.00281L4.14258 1.92871ZM3.45605 2.61133L2.38357 2.07301C2.19253 2.45363 2.09398 2.87306 2.09395 3.29677L3.29395 3.29688L4.49395 3.29698C4.49395 3.24488 4.50613 3.19428 4.52853 3.14965L3.45605 2.61133ZM3.29395 3.29688H2.09395V3.33301H3.29395H4.49395V3.29688H3.29395ZM3.29395 3.33301H2.09395C2.09395 3.7822 2.19923 4.22466 2.40005 4.62498L3.47266 4.08691L4.54526 3.54885C4.51139 3.48133 4.49395 3.40723 4.49395 3.33301H3.29395ZM3.47266 4.08691L2.39988 4.62465L2.59422 5.01235L3.66699 4.47461L4.73976 3.93687L4.54543 3.54918L3.47266 4.08691ZM3.66699 4.47461L2.59453 5.01296C2.69101 5.20515 2.8172 5.37705 2.9644 5.52376L3.81152 4.67383L4.65865 3.8239C4.68905 3.8542 4.71696 3.89145 4.73946 3.93626L3.66699 4.47461ZM3.81152 4.67383L2.963 5.52236L2.96983 5.52919L3.81836 4.68066L4.66689 3.83214L4.66005 3.8253L3.81152 4.67383ZM3.81836 4.68066L2.97149 5.53085C3.07288 5.63185 3.13105 5.77093 3.13105 5.91704L4.33105 5.91699L5.53105 5.91695C5.53103 5.13573 5.22084 4.38392 4.66523 3.83048L3.81836 4.68066ZM4.33105 5.91699L3.13105 5.91664C3.13104 5.96818 3.10188 6.01473 3.0567 6.03723L3.5918 7.11133L4.12689 8.18542C4.98761 7.75663 5.53078 6.87786 5.53105 5.91734L4.33105 5.91699ZM3.5918 7.11133L3.05733 6.03692L2.48214 6.32306L3.0166 7.39746L3.55107 8.47187L4.12626 8.18573L3.5918 7.11133ZM3.0166 7.39746L2.48172 6.32326L1.77176 6.67678L2.30664 7.75098L2.84152 8.82517L3.55148 8.47166L3.0166 7.39746ZM2.30664 7.75098L1.77157 6.67687C1.48572 6.81927 1.2269 7.00665 1.00381 7.22883L1.85059 8.0791L2.69736 8.92938C2.74121 8.88571 2.79035 8.85067 2.84171 8.82508L2.30664 7.75098ZM1.85059 8.0791L1.00368 7.22896C0.778763 7.45302 0.590951 7.7122 0.448107 7.99668L1.52051 8.53516L2.59291 9.07363C2.61954 9.0206 2.65484 8.97174 2.6975 8.92924L1.85059 8.0791ZM1.52051 8.53516L0.448881 7.99514L0.197905 8.49319L1.26953 9.0332L2.34116 9.57322L2.59213 9.07517L1.52051 8.53516ZM1.26953 9.0332V10.2332H4.34961V9.0332V7.8332H1.26953V9.0332ZM4.34961 9.0332H3.14961V10.0332H4.34961H5.54961V9.0332H4.34961ZM4.34961 10.0332V8.8332H1.13672V10.0332V11.2332H4.34961V10.0332ZM1.13672 10.0332L1.13701 8.8332C1.2925 8.83324 1.41875 8.95897 1.41875 9.11523H0.21875H-0.98125C-0.98125 10.285 -0.0325325 11.2329 1.13643 11.2332L1.13672 10.0332ZM0.21875 9.11523L1.41875 9.11574C1.41873 9.16095 1.40813 9.20405 1.38903 9.24213L0.316406 8.7041L-0.756218 8.16607C-0.903313 8.45932 -0.98111 8.78405 -0.98125 9.11473L0.21875 9.11523ZM0.316406 8.7041L1.38904 9.24212L1.69861 8.62493L0.625977 8.08691L-0.446656 7.5489L-0.756227 8.16609L0.316406 8.7041ZM0.625977 8.08691L1.69844 8.62526C1.77354 8.47566 1.87282 8.33843 1.99142 8.22028L1.14453 7.37012L0.297641 6.51995C-0.00390461 6.82034 -0.25553 7.16815 -0.446488 7.54856L0.625977 8.08691ZM1.14453 7.37012L1.99131 8.2204C2.10888 8.1033 2.24541 8.0053 2.39556 7.93048L1.86035 6.85645L1.32514 5.78241C0.946268 5.97121 0.598994 6.21984 0.297757 6.51984L1.14453 7.37012ZM1.86035 6.85645L2.39583 7.93035L3.10677 7.57586L2.57129 6.50195L2.03581 5.42805L1.32488 5.78254L1.86035 6.85645ZM2.57129 6.50195L3.10648 7.576L3.6807 7.28986L3.14551 6.21582L2.61031 5.14178L2.03609 5.42791L2.57129 6.50195ZM3.14551 6.21582L3.68047 7.28998C4.19927 7.0316 4.53038 6.50172 4.53105 5.91839L3.33105 5.91699L2.13106 5.9156C2.13144 5.58574 2.31869 5.28702 2.61054 5.14166L3.14551 6.21582ZM3.33105 5.91699L4.53105 5.91689C4.53101 5.40128 4.3261 4.90507 3.9593 4.53959L3.1123 5.38965L2.2653 6.2397C2.17864 6.15335 2.13107 6.03724 2.13105 5.9171L3.33105 5.91699ZM3.1123 5.38965L3.96083 4.54112L3.954 4.53428L3.10547 5.38281L2.25694 6.23134L2.26378 6.23818L3.1123 5.38965ZM3.10547 5.38281L3.95242 4.53271C3.90935 4.4898 3.87324 4.43991 3.84581 4.38529L2.77344 4.92383L1.70107 5.46236C1.84416 5.74729 2.03242 6.00765 2.25851 6.23291L3.10547 5.38281ZM2.77344 4.92383L3.84621 4.38609L3.65187 3.9984L2.5791 4.53613L1.50633 5.07387L1.70067 5.46157L2.77344 4.92383ZM2.5791 4.53613L3.6516 3.99785C3.54798 3.79139 3.49395 3.56334 3.49395 3.33301H2.29395H1.09395C1.09395 3.93783 1.2356 4.53446 1.50661 5.07442L2.5791 4.53613ZM2.29395 3.33301H3.49395V3.29688H2.29395H1.09395V3.33301H2.29395ZM2.29395 3.29688L3.49395 3.29694C3.49396 3.09004 3.54227 2.88611 3.63498 2.70141L2.5625 2.16309L1.49002 1.62476C1.22951 2.14376 1.09398 2.71635 1.09395 3.29681L2.29395 3.29688ZM2.5625 2.16309L3.63496 2.70144C3.76374 2.4449 3.97407 2.23547 4.23133 2.10732L3.69629 1.0332L3.16125 -0.0409163C2.44052 0.318092 1.8524 0.902865 1.49004 1.62474L2.5625 2.16309ZM3.69629 1.0332L4.23124 2.10737C4.41638 2.01516 4.62219 1.96664 4.82932 1.9666L4.8291 0.766602L4.82889 -0.433398C4.25016 -0.433295 3.67831 -0.298423 3.16134 -0.0409604L3.69629 1.0332ZM4.8291 0.766602V1.9666H4.9082V0.766602V-0.433398H4.8291V0.766602ZM12.1709 0.766602L12.1707 1.9666C12.3778 1.96663 12.5835 2.01513 12.7688 2.10737L13.3037 1.0332L13.8387 -0.0409604C13.3217 -0.298423 12.7499 -0.433323 12.1711 -0.433398L12.1709 0.766602ZM13.3037 1.0332L12.7687 2.10735C13.0259 2.23546 13.2362 2.44484 13.365 2.70144L14.4375 2.16309L15.51 1.62473C15.1476 0.902873 14.5595 0.318087 13.8387 -0.0409394L13.3037 1.0332ZM14.4375 2.16309L13.365 2.70143C13.4577 2.88611 13.506 3.09001 13.5061 3.29694L14.7061 3.29688L15.9061 3.29681C15.906 2.71635 15.7705 2.14377 15.51 1.62474L14.4375 2.16309ZM14.7061 3.29688H13.5061V3.33301H14.7061H15.9061V3.29688H14.7061ZM14.7061 3.33301H13.5061C13.5061 3.56338 13.452 3.79138 13.3484 3.99783L14.4209 4.53613L15.4934 5.07444C15.7644 4.53444 15.9061 3.93783 15.9061 3.33301H14.7061ZM14.4209 4.53613L13.3481 3.9984L13.1538 4.38609L14.2266 4.92383L15.2993 5.46157L15.4937 5.07387L14.4209 4.53613ZM14.2266 4.92383L13.1542 4.38529C13.1267 4.43997 13.0907 4.48979 13.0476 4.53267L13.8945 5.38281L14.7414 6.23295C14.9676 6.00763 15.1558 5.74728 15.2989 5.46236L14.2266 4.92383ZM13.8945 5.38281L13.046 4.53428L13.0392 4.54112L13.8877 5.38965L14.7362 6.23818L14.7431 6.23134L13.8945 5.38281ZM13.8877 5.38965L13.0407 4.53959C12.6739 4.90507 12.469 5.40128 12.4689 5.91689L13.6689 5.91699L14.8689 5.9171C14.8689 6.03724 14.8214 6.15335 14.7347 6.2397L13.8877 5.38965ZM13.6689 5.91699L12.4689 5.91839C12.4696 6.50172 12.8007 7.0316 13.3195 7.28998L13.8545 6.21582L14.3895 5.14166C14.6813 5.28702 14.8686 5.58574 14.8689 5.9156L13.6689 5.91699ZM13.8545 6.21582L13.3193 7.28986L13.8935 7.576L14.4287 6.50195L14.9639 5.42791L14.3897 5.14178L13.8545 6.21582ZM14.4287 6.50195L13.8932 7.57586L14.6042 7.93035L15.1396 6.85645L15.6751 5.78254L14.9642 5.42805L14.4287 6.50195ZM15.1396 6.85645L14.6045 7.9305C14.7546 8.0053 14.8911 8.10326 15.0087 8.2204L15.8555 7.37012L16.7022 6.51984C16.401 6.21984 16.0538 5.97122 15.6748 5.78239L15.1396 6.85645ZM15.8555 7.37012L15.0086 8.22031C15.1272 8.33843 15.2264 8.47562 15.3016 8.62527L16.374 8.08691L17.4465 7.54856C17.2555 7.16815 17.0039 6.82036 16.7023 6.51993L15.8555 7.37012ZM16.374 8.08691L15.3014 8.62493L15.611 9.24212L16.6836 8.7041L17.7562 8.16609L17.4467 7.5489L16.374 8.08691ZM16.6836 8.7041L15.611 9.24218C15.5919 9.20405 15.5813 9.1609 15.5813 9.11574L16.7812 9.11523L17.9813 9.11473C17.9811 8.78407 17.9033 8.45935 17.7562 8.16602L16.6836 8.7041ZM16.7812 9.11523H15.5813C15.5813 8.95916 15.7074 8.83322 15.8631 8.8332L15.8633 10.0332L15.8634 11.2332C17.0327 11.2331 17.9813 10.2849 17.9813 9.11523H16.7812ZM15.8633 10.0332V8.8332H12.6504V10.0332V11.2332H15.8633V10.0332ZM12.6504 10.0332H13.8504V9.0332H12.6504H11.4504V10.0332H12.6504ZM12.6504 9.0332V10.2332H15.7305V9.0332V7.8332H12.6504V9.0332ZM15.7305 9.0332L16.8021 8.49319L16.5511 7.99514L15.4795 8.53516L14.4079 9.07517L14.6588 9.57322L15.7305 9.0332ZM15.4795 8.53516L16.5519 7.99667C16.4091 7.71222 16.2213 7.45304 15.9963 7.22892L15.1494 8.0791L14.3025 8.92929C14.3452 8.97173 14.3804 9.02054 14.4071 9.07364L15.4795 8.53516ZM15.1494 8.0791L15.9962 7.22883C15.7731 7.00666 15.5143 6.81928 15.2284 6.67684L14.6934 7.75098L14.1584 8.82511C14.2097 8.85067 14.2587 8.88564 14.3026 8.92938L15.1494 8.0791ZM14.6934 7.75098L15.2282 6.67678L14.5183 6.32326L13.9834 7.39746L13.4485 8.47166L14.1585 8.82517L14.6934 7.75098ZM13.9834 7.39746L14.5179 6.32306L13.9427 6.03692L13.4082 7.11133L12.8737 8.18573L13.4489 8.47187L13.9834 7.39746ZM13.4082 7.11133L13.9433 6.03723C13.8981 6.01473 13.869 5.96818 13.8689 5.91664L12.6689 5.91699L11.4689 5.91734C11.4692 6.87786 12.0124 7.75663 12.8731 8.18542L13.4082 7.11133ZM12.6689 5.91699L13.8689 5.91704C13.869 5.77093 13.9271 5.63185 14.0285 5.53085L13.1816 4.68066L12.3348 3.83048C11.7792 4.38392 11.469 5.13573 11.4689 5.91695L12.6689 5.91699ZM13.1816 4.68066L14.0302 5.52919L14.037 5.52236L13.1885 4.67383L12.3399 3.8253L12.3331 3.83214L13.1816 4.68066ZM13.1885 4.67383L14.0355 5.52385C14.1829 5.37701 14.309 5.2051 14.4055 5.01296L13.333 4.47461L12.2605 3.93626C12.283 3.89155 12.3109 3.8542 12.3414 3.82381L13.1885 4.67383ZM13.333 4.47461L14.4058 5.01235L14.6001 4.62465L13.5273 4.08691L12.4546 3.54918L12.2602 3.93687L13.333 4.47461ZM13.5273 4.08691L14.5999 4.62502C14.8008 4.22464 14.9061 3.78219 14.9061 3.33301H13.7061H12.5061C12.5061 3.40727 12.4886 3.48133 12.4548 3.54881L13.5273 4.08691ZM13.7061 3.33301H14.9061V3.29688H13.7061H12.5061V3.33301H13.7061ZM13.7061 3.29688L14.9061 3.29677C14.906 2.87306 14.8075 2.45365 14.6164 2.07298L13.5439 2.61133L12.4715 3.14968C12.4939 3.19428 12.5061 3.24484 12.5061 3.29698L13.7061 3.29688ZM13.5439 2.61133L14.6163 2.07279C14.3506 1.54375 13.9187 1.1167 13.3924 0.854577L12.8574 1.92871L12.3224 3.00284C12.3886 3.03583 12.4412 3.08932 12.4716 3.14987L13.5439 2.61133ZM12.8574 1.92871L13.3922 0.854451C13.0145 0.666439 12.5958 0.566694 12.1712 0.566602L12.1709 1.7666L12.1706 2.9666C12.2208 2.96661 12.2739 2.97872 12.3227 3.00297L12.8574 1.92871ZM12.1709 1.7666V0.566602H12.0918V1.7666V2.9666H12.1709V1.7666ZM12.0918 1.7666L12.0914 0.566602C11.667 0.566731 11.2483 0.666379 10.8705 0.854482L11.4053 1.92871L11.9401 3.00294C11.9887 2.97876 12.0418 2.96662 12.0922 2.9666L12.0918 1.7666ZM11.4053 1.92871L10.8703 0.854555C10.344 1.11669 9.91206 1.54375 9.64638 2.0728L10.7188 2.61133L11.7911 3.14986C11.8216 3.08927 11.874 3.03583 11.9402 3.00287L11.4053 1.92871ZM10.7188 2.61133L9.64629 2.07298C9.4552 2.45365 9.35668 2.87306 9.35664 3.29677L10.5566 3.29688L11.7566 3.29698C11.7566 3.24484 11.7688 3.19428 11.7912 3.14968L10.7188 2.61133ZM10.5566 3.29688H9.35664V3.33301H10.5566H11.7566V3.29688H10.5566ZM10.5566 3.33301H9.35664C9.35664 3.7822 9.4619 4.22464 9.66276 4.62501L10.7354 4.08691L11.8079 3.54882C11.7741 3.48133 11.7566 3.40726 11.7566 3.33301H10.5566ZM10.7354 4.08691L9.66258 4.62465L9.85692 5.01235L10.9297 4.47461L12.0025 3.93687L11.8081 3.54918L10.7354 4.08691ZM10.9297 4.47461L9.85753 5.01357C9.95488 5.20723 10.0828 5.38 10.2291 5.52577L11.0762 4.67578L11.9232 3.8258C11.951 3.85349 11.9783 3.88876 12.0018 3.93565L10.9297 4.47461ZM11.0762 4.67578L10.2293 5.52601C10.5909 5.88611 11.0881 6.10006 11.6116 6.10039L11.6123 4.90039L11.6131 3.70039C11.741 3.70047 11.8474 3.75025 11.923 3.82555L11.0762 4.67578ZM11.6123 4.90039H10.4123V5.90039H11.6123H12.8123V4.90039H11.6123ZM11.6123 5.90039L11.6126 4.70039C11.4692 4.70035 11.3236 4.64078 11.217 4.53455L10.3701 5.38477L9.52328 6.23498C10.0717 6.78121 10.8228 7.10018 11.612 7.10039L11.6123 5.90039ZM10.3701 5.38477L11.217 4.53461C11.1741 4.49185 11.1366 4.44024 11.1085 4.38441L10.0361 4.92285L8.96372 5.4613C9.10742 5.74751 9.29713 6.0097 9.52322 6.23492L10.3701 5.38477ZM10.0361 4.92285L11.1084 4.38403L10.914 3.99731L9.8418 4.53613L8.76957 5.07495L8.96391 5.46167L10.0361 4.92285ZM9.8418 4.53613L10.9143 3.99779C10.8106 3.79137 10.7566 3.56344 10.7566 3.33301H9.55664H8.35664C8.35664 3.93783 8.49823 4.53441 8.76933 5.07448L9.8418 4.53613ZM9.55664 3.33301H10.7566V3.29688H9.55664H8.35664V3.33301H9.55664ZM9.55664 3.29688L10.7566 3.29694C10.7567 3.09008 10.805 2.8861 10.8977 2.70139L9.8252 2.16309L8.75271 1.62479C8.49224 2.14374 8.35667 2.71635 8.35664 3.29681L9.55664 3.29688ZM9.8252 2.16309L10.8976 2.70148C11.0264 2.44493 11.2368 2.23544 11.494 2.10732L10.959 1.0332L10.4239 -0.0409155C9.70322 0.318092 9.1151 0.902931 8.75275 1.62469L9.8252 2.16309ZM10.959 1.0332L11.4939 2.10739C11.6791 2.01518 11.8849 1.96664 12.092 1.9666L12.0918 0.766602L12.0916 -0.433398C11.5129 -0.433292 10.941 -0.298385 10.4241 -0.0409788L10.959 1.0332ZM12.0918 0.766602V1.9666H12.1709V0.766602V-0.433398H12.0918V0.766602Z" fill="#B3B3B3" mask="url(#path-1-inside-1_337_1051)"/>
</svg>
