<svg width="34" height="32" viewBox="0 0 34 32" fill="none" xmlns="http://www.w3.org/2000/svg">
<path d="M24 13.5V13V11V10.8536C24 10.6272 23.9101 10.4101 23.75 10.25V10.25C23.5899 10.0899 23.3728 10 23.1464 10H23H20H19.5M24 18.5V19V21V21.1464C24 21.3728 23.9101 21.5899 23.75 21.75V21.75C23.5899 21.9101 23.3728 22 23.1464 22H23H20H19.5M14.5 22H14H10.8536C10.6272 22 10.4101 21.9101 10.25 21.75V21.75C10.0899 21.5899 10 21.3728 10 21.1464V21V19V18.5M10 13.5V13V11V10.8536C10 10.6272 10.0899 10.4101 10.25 10.25V10.25C10.4101 10.0899 10.6272 10 10.8536 10H11H14H14.5" stroke="#B3B3B3" stroke-width="2"/>
</svg>
