<svg width="14" height="15" viewBox="0 0 14 15" fill="none" xmlns="http://www.w3.org/2000/svg">
<path d="M5.25 8.5C5.41006 8.5 5.56357 8.56358 5.67676 8.67676L5.82324 8.82324C5.93642 8.93643 6 9.08994 6 9.25C6 9.41006 5.93642 9.56357 5.82324 9.67676L2.85352 12.6465C2.7231 12.777 2.81551 13 3 13H3.64648C3.87285 13 4.08994 13.0899 4.25 13.25L4.32324 13.3232C4.43642 13.4364 4.5 13.5899 4.5 13.75C4.5 13.9101 4.43642 14.0636 4.32324 14.1768L4.25 14.25C4.08994 14.4101 3.87285 14.5 3.64648 14.5H0.853516C0.627153 14.5 0.410063 14.4101 0.25 14.25C0.0899366 14.0899 9.97567e-06 13.8728 0 13.6465V10.8535C1.00388e-05 10.6272 0.0899366 10.4101 0.25 10.25L0.323242 10.1768C0.436429 10.0636 0.589937 10 0.75 10C0.910064 10 1.06357 10.0636 1.17676 10.1768L1.25 10.25C1.41006 10.4101 1.49999 10.6272 1.5 10.8535V11.5C1.5 11.6845 1.72304 11.7769 1.85352 11.6465L4.82324 8.67676C4.93643 8.56358 5.08994 8.5 5.25 8.5ZM13.1465 0.5C13.3728 0.50001 13.5899 0.589937 13.75 0.75C13.9101 0.910063 14 1.12715 14 1.35352V4.14648C14 4.37285 13.9101 4.58994 13.75 4.75L13.6768 4.82324C13.5636 4.93642 13.4101 5 13.25 5C13.0899 5 12.9364 4.93642 12.8232 4.82324L12.75 4.75C12.5899 4.58994 12.5 4.37285 12.5 4.14648V3.5C12.5 3.31551 12.277 3.2231 12.1465 3.35352L9.17676 6.32324C9.06357 6.43642 8.91006 6.5 8.75 6.5C8.58994 6.5 8.43643 6.43642 8.32324 6.32324L8.17676 6.17676C8.06358 6.06357 8 5.91006 8 5.75C8 5.58994 8.06358 5.43643 8.17676 5.32324L11.1465 2.35352C11.2769 2.22304 11.1845 2 11 2H10.3535C10.1272 1.99999 9.91006 1.91006 9.75 1.75L9.67676 1.67676C9.56358 1.56357 9.5 1.41006 9.5 1.25C9.5 1.08994 9.56358 0.936429 9.67676 0.823242L9.75 0.75C9.91006 0.589937 10.1272 0.50001 10.3535 0.5H13.1465Z" fill="#B3B3B3"/>
</svg>
