<svg width="20" height="22" viewBox="0 0 20 22" fill="none" xmlns="http://www.w3.org/2000/svg">
<path d="M11.5 0.958461C11.0439 0.695156 10.5266 0.556538 10 0.556538C9.47339 0.556538 8.95606 0.695156 8.5 0.958461L1 5.28846C0.695969 5.46399 0.443498 5.71646 0.267962 6.02049C0.0924258 6.32452 8.91844e-06 6.6694 0 7.02046V20.4435C0 20.7087 0.105357 20.963 0.292893 21.1506C0.48043 21.3381 0.734784 21.4435 1 21.4435H7C7.26522 21.4435 7.51957 21.3381 7.70711 21.1506C7.89464 20.963 8 20.7087 8 20.4435V14.4435H12V20.4435C12 20.7087 12.1054 20.963 12.2929 21.1506C12.4804 21.3381 12.7348 21.4435 13 21.4435H19C19.2652 21.4435 19.5196 21.3381 19.7071 21.1506C19.8946 20.963 20 20.7087 20 20.4435V7.02046C20 6.6694 19.9076 6.32452 19.732 6.02049C19.5565 5.71646 19.304 5.46399 19 5.28846L11.5 0.958461Z" fill="white"/>
</svg>
