<svg width="23" height="24" viewBox="0 0 23 24" fill="none" xmlns="http://www.w3.org/2000/svg">
<path d="M3.56855 4.16455C7.93331 -0.253293 15.0671 -0.253381 19.4318 4.16455C23.759 8.54517 23.7158 15.6048 19.3352 19.9321C14.9926 24.2215 8.00793 24.2213 3.66523 19.9321C-0.715582 15.6047 -0.758921 8.54519 3.56855 4.16455ZM17.6535 5.92139C14.2675 2.49409 8.73293 2.49418 5.34688 5.92139C1.98984 9.31973 2.0237 14.7958 5.42207 18.1528C8.79107 21.4805 14.2094 21.4806 17.5783 18.1528C20.9765 14.7959 21.0102 9.3197 17.6535 5.92139ZM11.5002 5.91455C12.0523 5.91477 12.5002 6.3624 12.5002 6.91455V10.9146H16.5002C17.0523 10.9148 17.5002 11.3624 17.5002 11.9146C17.5001 12.4666 17.0523 12.9143 16.5002 12.9146H12.5002V16.9146C12.5001 17.4666 12.0523 17.9143 11.5002 17.9146C10.948 17.9146 10.5003 17.4668 10.5002 16.9146V12.9146H6.5002C5.94796 12.9146 5.50027 12.4668 5.5002 11.9146C5.5002 11.3623 5.94791 10.9146 6.5002 10.9146H10.5002V6.91455C10.5002 6.36227 10.9479 5.91455 11.5002 5.91455Z" fill="white"/>
</svg>
