<svg width="22" height="22" viewBox="0 0 22 22" fill="none" xmlns="http://www.w3.org/2000/svg">
<path d="M9.90702 0.5C4.72617 0.5 0.5 4.63994 0.5 9.77897C0.5 14.9181 4.72617 19.058 9.90702 19.058C12.141 19.058 14.1975 18.2882 15.8142 17.0005L20.1669 21.3531C20.5574 21.7437 21.1906 21.7437 21.5811 21.3531C21.9716 20.9626 21.9716 20.3294 21.5811 19.9389L17.2374 15.5952C18.5356 14.006 19.314 11.9845 19.314 9.77897C19.314 4.63994 15.0878 0.5 9.90702 0.5ZM2.5 9.77897C2.5 5.77333 5.8017 2.5 9.90702 2.5C14.0123 2.5 17.314 5.77333 17.314 9.77897C17.314 13.7847 14.0123 17.058 9.90702 17.058C5.8017 17.058 2.5 13.7847 2.5 9.77897Z" fill="#B3B3B3"/>
</svg>
