<svg width="32" height="32" viewBox="0 0 32 32" fill="none" xmlns="http://www.w3.org/2000/svg">
<path d="M16.6342 0.0128429C7.80484 -0.337824 0.36351 6.53551 0.0128428 15.3648C-0.337824 24.1955 6.53551 31.6368 15.3662 31.9862C24.1955 32.3368 31.6368 25.4635 31.9875 16.6342C32.3382 7.80484 25.4635 0.362176 16.6342 0.0128429ZM23.3888 23.4515C23.2633 23.6715 23.0557 23.8326 22.8114 23.8996C22.5672 23.9666 22.3064 23.934 22.0862 23.8088C19.9709 22.6052 17.6461 21.8148 15.2355 21.4795C12.8262 21.1374 10.3737 21.2564 8.00884 21.8302C7.7675 21.877 7.51738 21.8291 7.31046 21.6963C7.10354 21.5635 6.95572 21.3562 6.89771 21.1173C6.8397 20.8784 6.87596 20.6263 6.99895 20.4134C7.12195 20.2005 7.32223 20.0432 7.55818 19.9742C10.1582 19.3422 12.8315 19.2128 15.5022 19.5875C18.1728 19.9635 20.7062 20.8248 23.0315 22.1475C23.1406 22.2097 23.2364 22.2927 23.3134 22.3919C23.3904 22.491 23.4471 22.6044 23.4803 22.7255C23.5135 22.8466 23.5225 22.973 23.5068 23.0976C23.4911 23.2222 23.451 23.3424 23.3888 23.4515ZM25.4915 19.2515C25.4141 19.3951 25.3091 19.5219 25.1826 19.6248C25.0561 19.7278 24.9105 19.8047 24.7542 19.8513C24.5979 19.8978 24.4339 19.9131 24.2717 19.8962C24.1095 19.8793 23.9522 19.8306 23.8088 19.7528C21.3318 18.4137 18.6351 17.5286 15.8462 17.1395C13.058 16.7448 10.2218 16.8523 7.47151 17.4568C7.31215 17.4922 7.14739 17.4957 6.98667 17.4672C6.82595 17.4387 6.67244 17.3788 6.53493 17.2908C6.39743 17.2029 6.27865 17.0886 6.18539 16.9547C6.09214 16.8207 6.02625 16.6697 5.99151 16.5102C5.95618 16.3508 5.95265 16.1861 5.98114 16.0253C6.00963 15.8646 6.06957 15.7111 6.15752 15.5736C6.24548 15.4361 6.35971 15.3173 6.49367 15.2241C6.62763 15.1308 6.77869 15.0649 6.93818 15.0302C9.97687 14.361 13.111 14.2427 16.1915 14.6808C19.2735 15.1088 22.2536 16.0865 24.9902 17.5675C25.5928 17.8942 25.8168 18.6475 25.4915 19.2515ZM27.8222 14.5168C27.6349 14.8763 27.3127 15.1468 26.9262 15.2688C26.5397 15.3908 26.1205 15.3543 25.7608 15.1675C22.8763 13.6679 19.7568 12.6722 16.5368 12.2235C13.3178 11.767 10.0445 11.8639 6.85818 12.5102C6.46329 12.5853 6.05472 12.5017 5.72101 12.2776C5.3873 12.0536 5.15532 11.707 5.07534 11.3131C4.99537 10.9192 5.07383 10.5096 5.29374 10.1731C5.51364 9.83665 5.85728 9.60038 6.25018 9.51551C9.77658 8.79973 13.3993 8.69151 16.9622 9.19551C20.5261 9.69296 23.9788 10.7955 27.1715 12.4555C27.9195 12.8448 28.2115 13.7675 27.8222 14.5168Z" fill="white"/>
</svg>
