<svg width="16" height="16" viewBox="0 0 16 16" fill="none" xmlns="http://www.w3.org/2000/svg">
<path d="M11.5 8V8C12.4604 8 13.3815 7.61847 14.0607 6.93934L14.1779 6.82206C14.3913 6.60875 14.5688 6.36244 14.7037 6.09262V6.09262C14.8986 5.7029 15 5.27315 15 4.83743V4.5V4.16257C15 3.72685 14.8986 3.2971 14.7037 2.90738V2.90738C14.5688 2.63756 14.3913 2.39125 14.1779 2.17794L13.8221 1.82206C13.6087 1.60875 13.3624 1.43122 13.0926 1.29631V1.29631C12.7029 1.10145 12.2732 1 11.8374 1H11.5H11.1626C10.7268 1 10.2971 1.10145 9.90738 1.29631V1.29631C9.63756 1.43122 9.39125 1.60875 9.17794 1.82206L9.06066 1.93934C8.38153 2.61847 8 3.53957 8 4.5V4.5M11.5 8L8 4.5M11.5 8L4.68583 14.3599C4.24511 14.7712 3.66472 15 3.06186 15H2.96353C2.6587 15 2.35806 14.929 2.08541 14.7927V14.7927C1.70541 14.6027 1.39729 14.2946 1.20729 13.9146V13.9146C1.07097 13.6419 1 13.3413 1 13.0365V12.9381C1 12.3353 1.22877 11.7549 1.64011 11.3142L8 4.5" stroke="#B3B3B3" stroke-width="1.5"/>
</svg>
