<svg width="38" height="36" viewBox="0 0 38 36" fill="none" xmlns="http://www.w3.org/2000/svg">
<path d="M25.6465 10.625C26.0477 10.625 26.4346 10.7645 26.7422 11.0166L26.8691 11.1309L26.9834 11.2578C27.2355 11.5654 27.375 11.9523 27.375 12.3535V17H25.625V12.375H12.375V23.625H18V25.375H12.3535C11.8951 25.375 11.455 25.1933 11.1309 24.8691C10.8067 24.545 10.625 24.1049 10.625 23.6465V12.3535C10.625 11.8951 10.8067 11.455 11.1309 11.1309L11.2578 11.0166C11.5654 10.7645 11.9523 10.625 12.3535 10.625H25.6465ZM26.1465 19C26.3728 19 26.5899 19.0899 26.75 19.25C26.9101 19.4101 27 19.6272 27 19.8535V24.1465C27 24.3728 26.9101 24.5899 26.75 24.75C26.5899 24.9101 26.3728 25 26.1465 25H20.3535C20.1272 25 19.9101 24.9101 19.75 24.75C19.5899 24.5899 19.5 24.3728 19.5 24.1465V19.8535C19.5 19.6272 19.5899 19.4101 19.75 19.25C19.9101 19.0899 20.1272 19 20.3535 19H26.1465Z" fill="#B3B3B3"/>
</svg>
