<svg width="118" height="32" viewBox="0 0 118 32" fill="none" xmlns="http://www.w3.org/2000/svg">
<path d="M17.1342 0.013333C8.30484 -0.337334 0.86351 6.536 0.512843 15.3653C0.162176 24.196 7.03551 31.6373 15.8662 31.9867C24.6955 32.3373 32.1368 25.464 32.4875 16.6347C32.8382 7.80533 25.9635 0.362666 17.1342 0.013333ZM23.8888 23.452C23.7633 23.672 23.5557 23.8331 23.3114 23.9001C23.0672 23.9671 22.8064 23.9345 22.5862 23.8093C20.4709 22.6057 18.1461 21.8152 15.7355 21.48C13.3262 21.1379 10.8737 21.2569 8.50884 21.8307C8.2675 21.8775 8.01738 21.8296 7.81046 21.6968C7.60354 21.564 7.45572 21.3567 7.39771 21.1178C7.3397 20.8788 7.37596 20.6268 7.49895 20.4139C7.62195 20.201 7.82223 20.0437 8.05818 19.9747C10.6582 19.3427 13.3315 19.2133 16.0022 19.588C18.6728 19.964 21.2062 20.8253 23.5315 22.148C23.6406 22.2102 23.7364 22.2932 23.8134 22.3924C23.8904 22.4915 23.9471 22.6049 23.9803 22.726C24.0135 22.8471 24.0225 22.9735 24.0068 23.0981C23.9911 23.2227 23.951 23.3429 23.8888 23.452ZM25.9915 19.252C25.9141 19.3955 25.8091 19.5224 25.6826 19.6253C25.5561 19.7282 25.4105 19.8052 25.2542 19.8518C25.0979 19.8983 24.9339 19.9136 24.7717 19.8967C24.6095 19.8798 24.4522 19.8311 24.3088 19.7533C21.8318 18.4142 19.1351 17.5291 16.3462 17.14C13.558 16.7453 10.7218 16.8528 7.97151 17.4573C7.81215 17.4927 7.64739 17.4962 7.48667 17.4677C7.32595 17.4392 7.17244 17.3793 7.03493 17.2913C6.89743 17.2034 6.77865 17.0891 6.68539 16.9552C6.59214 16.8212 6.52625 16.6702 6.49151 16.5107C6.45618 16.3513 6.45265 16.1865 6.48114 16.0258C6.50963 15.8651 6.56957 15.7116 6.65752 15.5741C6.74548 15.4366 6.85971 15.3178 6.99367 15.2246C7.12763 15.1313 7.27869 15.0654 7.43818 15.0307C10.4769 14.3615 13.611 14.2431 16.6915 14.6813C19.7735 15.1093 22.7536 16.087 25.4902 17.568C26.0928 17.8947 26.3168 18.648 25.9915 19.252ZM28.3222 14.5173C28.1349 14.8768 27.8127 15.1472 27.4262 15.2692C27.0397 15.3912 26.6205 15.3548 26.2608 15.168C23.3763 13.6683 20.2568 12.6727 17.0368 12.224C13.8178 11.7674 10.5445 11.8644 7.35818 12.5107C6.96329 12.5857 6.55472 12.5022 6.22101 12.2781C5.8873 12.054 5.65532 11.7075 5.57534 11.3136C5.49537 10.9197 5.57383 10.5101 5.79374 10.1736C6.01364 9.83714 6.35728 9.60087 6.75018 9.516C10.2766 8.80022 13.8993 8.692 17.4622 9.196C21.0261 9.69345 24.4788 10.796 27.6715 12.456C28.4195 12.8453 28.7115 13.768 28.3222 14.5173ZM46.4715 14.4693L45.3622 14.14C43.1355 13.48 42.5088 13.232 42.5088 12.336C42.5088 11.4867 43.4528 10.5667 45.5275 10.5667C47.5795 10.5667 49.3128 11.5693 50.2075 12.3133C50.3622 12.4413 50.5275 12.3827 50.5275 12.1827V9.24667C50.5275 9.11733 50.4915 9.04667 50.3968 8.976C49.2902 8.14933 47.3675 7.54933 45.4328 7.54933C41.4955 7.54933 39.1368 9.78933 39.1368 12.336C39.1368 15.212 40.9648 16.216 43.9715 17.064L45.2688 17.4293C47.5208 18.0667 47.9328 18.632 47.9328 19.504C47.9328 20.9667 46.8248 21.4147 45.1728 21.4147C43.0982 21.4147 40.5635 20.2 39.3728 18.7147C39.2662 18.584 39.1368 18.644 39.1368 18.7973V22.028C39.1368 22.1573 39.1502 22.216 39.2435 22.3213C40.2342 23.4067 42.6035 24.3613 45.3635 24.3613C48.7582 24.3613 51.3048 22.3813 51.3048 19.316C51.3048 16.9333 49.9022 15.496 46.4715 14.4693ZM59.9475 12.1227C57.7075 12.1227 56.4102 13.4907 55.6555 14.8587V12.5013C55.6555 12.3947 55.5968 12.336 55.4902 12.336H52.5302C52.4248 12.336 52.3662 12.3947 52.3662 12.5013V27.6267C52.3662 27.7333 52.4248 27.792 52.5315 27.792H55.4915C55.5968 27.792 55.6555 27.7333 55.6555 27.6267V21.5787C56.4102 22.9453 57.6835 24.2907 59.9715 24.2907C62.9902 24.2907 65.1582 21.684 65.1582 18.1827C65.1582 14.6813 62.9662 12.1227 59.9475 12.1227ZM59.0755 21.4373C57.4955 21.4373 56.1275 19.8813 55.5848 18.16C56.1275 16.344 57.3768 14.9533 59.0755 14.9533C60.6902 14.9533 61.8102 16.18 61.8102 18.184C61.8102 20.188 60.6902 21.4373 59.0755 21.4373ZM113.253 12.336H110.234C110.128 12.336 110.081 12.3587 110.034 12.4653L106.992 19.776L103.938 12.4653C103.892 12.3587 103.845 12.336 103.738 12.336H98.8568V11.5573C98.8568 10.284 99.7168 9.69467 100.825 9.69467C101.486 9.69467 102.205 10.036 102.712 10.3427C102.83 10.4133 102.912 10.332 102.865 10.2253L101.804 7.69067C101.772 7.61358 101.713 7.55062 101.638 7.51333C101.12 7.24267 100.272 7.00667 99.4462 7.00667C96.9462 7.00667 95.5075 8.916 95.5075 11.3453V12.336H93.5035C93.3968 12.336 93.3382 12.3947 93.3382 12.5013V14.8587C93.3382 14.9653 93.3968 15.024 93.5035 15.024H95.5075V23.9147C95.5075 24.0213 95.5662 24.0787 95.6728 24.0787H98.6915C98.7982 24.0787 98.8568 24.02 98.8568 23.9147V15.024H101.438L105.188 23.1707L103.172 27.604C103.113 27.7347 103.184 27.7933 103.301 27.7933H106.52C106.626 27.7933 106.674 27.7693 106.72 27.664L113.382 12.524C113.429 12.4173 113.37 12.336 113.253 12.336ZM72.5168 12.0533C68.6968 12.0533 66.0675 14.7533 66.0675 18.208C66.0675 21.6387 68.6955 24.3627 72.5168 24.3627C76.3248 24.3627 78.9782 21.6387 78.9782 18.208C78.9782 14.7533 76.3248 12.0533 72.5168 12.0533ZM72.5275 21.4733C70.7008 21.4733 69.4035 20.0827 69.4035 18.2067C69.4035 16.3333 70.7008 14.9413 72.5275 14.9413C74.3435 14.9413 75.6408 16.332 75.6408 18.208C75.6408 20.0827 74.3435 21.4747 72.5275 21.4747M117.249 13.0293C117.096 12.7645 116.873 12.5471 116.605 12.4013C116.322 12.2472 116.003 12.1691 115.681 12.1747C115.34 12.1747 115.032 12.2502 114.757 12.4013C114.488 12.5469 114.264 12.7643 114.112 13.0293C113.957 13.2978 113.88 13.6004 113.88 13.9373C113.88 14.2707 113.957 14.5716 114.112 14.84C114.267 15.1067 114.482 15.316 114.757 15.468C115.032 15.62 115.34 15.6956 115.681 15.6947C116.022 15.6938 116.33 15.6182 116.605 15.468C116.88 15.3178 117.094 15.1084 117.249 14.84C117.404 14.5716 117.481 14.2711 117.482 13.9387C117.482 13.6009 117.404 13.2978 117.249 13.0293ZM116.968 14.692C116.845 14.9114 116.663 15.0916 116.442 15.212C116.209 15.3391 115.947 15.4035 115.681 15.3987C115.413 15.404 115.148 15.3397 114.913 15.212C114.694 15.091 114.513 14.9108 114.392 14.692C114.265 14.4609 114.201 14.2008 114.205 13.9373C114.205 13.6564 114.267 13.4067 114.392 13.188C114.516 12.9693 114.69 12.7969 114.913 12.6707C115.136 12.5444 115.392 12.4822 115.681 12.484C115.965 12.484 116.219 12.5462 116.441 12.6707C116.666 12.796 116.841 12.9693 116.968 13.1907C117.094 13.412 117.157 13.6631 117.157 13.944C117.157 14.2213 117.094 14.4702 116.968 14.6907M90.5208 6.984C89.3875 6.984 88.5635 7.784 88.5635 8.84533C88.5635 9.90667 89.3888 10.708 90.5208 10.708C91.6755 10.708 92.5008 9.908 92.5008 8.84533C92.5008 7.784 91.6755 6.984 90.5208 6.984ZM116.293 13.9027C116.349 13.8638 116.395 13.8115 116.426 13.7506C116.457 13.6896 116.473 13.6218 116.472 13.5533C116.472 13.404 116.413 13.2858 116.296 13.1987C116.178 13.1107 116.009 13.0667 115.788 13.0667H115.004V14.7053H115.382V14.0533H115.588L116.086 14.7053H116.553L116.006 14.0147C116.109 14.0002 116.207 13.9618 116.293 13.9027ZM115.728 13.7573H115.381V13.3573H115.741C115.848 13.3573 115.929 13.3733 115.986 13.4053C116.014 13.4197 116.037 13.442 116.053 13.4696C116.068 13.4971 116.075 13.5285 116.073 13.56C116.074 13.5906 116.066 13.6209 116.05 13.6471C116.034 13.6733 116.011 13.6945 115.984 13.708C115.904 13.7454 115.816 13.7623 115.728 13.7573ZM92.0408 12.336H89.0235C88.9168 12.336 88.8582 12.3947 88.8582 12.5013V23.9147C88.8582 24.0213 88.9168 24.0787 89.0235 24.0787H92.0408C92.1475 24.0787 92.2062 24.02 92.2062 23.9147V12.5013C92.2062 12.3947 92.1475 12.336 92.0408 12.336ZM87.5968 21.1427C87.1669 21.3778 86.6828 21.4959 86.1928 21.4853C85.2262 21.4853 84.6129 20.9187 84.6129 19.6693V15.024H87.5608C87.6675 15.024 87.7262 14.9653 87.7262 14.8587V12.5013C87.7262 12.3947 87.6675 12.336 87.5608 12.336H84.6142V9.25867C84.6142 9.12933 84.5302 9.05867 84.4142 9.152L79.1422 13.3027C79.0715 13.3613 79.0488 13.42 79.0488 13.516V14.8587C79.0488 14.9653 79.1075 15.024 79.2128 15.024H81.2648V20.164C81.2648 22.9467 82.8689 24.244 85.1555 24.244C86.1462 24.244 87.1022 23.9853 87.6675 23.6547C87.7502 23.608 87.7608 23.5613 87.7608 23.4773V21.2373C87.7608 21.12 87.7022 21.0827 87.5968 21.1427Z" fill="white"/>
</svg>
