<svg width="14" height="14" viewBox="0 0 14 14" fill="none" xmlns="http://www.w3.org/2000/svg">
<path d="M11.8535 0C11.6272 9.97568e-06 11.4101 0.0899365 11.25 0.25C11.0899 0.410063 11 0.627153 11 0.853516V5.5L1.16797 0.0917969C1.05796 0.031293 0.934142 0 0.808594 0C0.611211 7.31604e-06 0.421906 0.0783351 0.282227 0.217773L0.25 0.25C0.0899363 0.410063 9.53674e-06 0.627153 0 0.853516V13.1465C1.04904e-05 13.3728 0.0899363 13.5899 0.25 13.75L0.282227 13.7822C0.421906 13.9217 0.611211 14 0.808594 14C0.934142 14 1.05796 13.9687 1.16797 13.9082L11 8.5V13.1465C11 13.3728 11.0899 13.5899 11.25 13.75C11.4101 13.9101 11.6272 14 11.8535 14H13.1465C13.3728 14 13.5899 13.9101 13.75 13.75C13.9101 13.5899 14 13.3728 14 13.1465V0.853516C14 0.627153 13.9101 0.410063 13.75 0.25C13.5899 0.0899366 13.3728 1.00072e-05 13.1465 0H11.8535Z" fill="#B3B3B3"/>
</svg>
