<svg width="17" height="17" viewBox="0 0 17 17" fill="none" xmlns="http://www.w3.org/2000/svg">
<path d="M2.5 14.6464V2.35355C2.5 2.12718 2.58993 1.91007 2.75 1.75C2.91007 1.58993 3.12718 1.5 3.35355 1.5H5.64645C5.87282 1.5 6.08993 1.58993 6.25 1.75C6.41007 1.91007 6.5 2.12718 6.5 2.35355V14.6464C6.5 14.8728 6.41007 15.0899 6.25 15.25C6.08993 15.4101 5.87282 15.5 5.64645 15.5H3.35355C3.12718 15.5 2.91007 15.4101 2.75 15.25C2.58993 15.0899 2.5 14.8728 2.5 14.6464Z" fill="black"/>
<path d="M10.5 14.6464V2.35355C10.5 2.12718 10.5899 1.91007 10.75 1.75C10.9101 1.58993 11.1272 1.5 11.3536 1.5H13.6464C13.8728 1.5 14.0899 1.58993 14.25 1.75C14.4101 1.91007 14.5 2.12718 14.5 2.35355V14.6464C14.5 14.8728 14.4101 15.0899 14.25 15.25C14.0899 15.4101 13.8728 15.5 13.6464 15.5H11.3536C11.1272 15.5 10.9101 15.4101 10.75 15.25C10.5899 15.0899 10.5 14.8728 10.5 14.6464Z" fill="black"/>
</svg>
