<svg width="16" height="15" viewBox="0 0 16 15" fill="none" xmlns="http://www.w3.org/2000/svg">
<path d="M15 15H1V13.5H15V15ZM15 10.5039H1V9.00391H15V10.5039ZM12.6943 0.754883C13.0611 0.776257 13.4204 0.871366 13.75 1.03613C14.2751 1.2987 14.7013 1.72486 14.9639 2.25C15.1522 2.62675 15.25 3.04266 15.25 3.46387V3.53613C15.25 3.95734 15.1522 4.37325 14.9639 4.75C14.7013 5.27514 14.2751 5.7013 13.75 5.96387C13.3732 6.15222 12.9573 6.25 12.5361 6.25H3.46387C3.04266 6.25 2.62675 6.15222 2.25 5.96387C1.72486 5.7013 1.2987 5.27514 1.03613 4.75C0.847784 4.37325 0.75 3.95734 0.75 3.53613V3.46387C0.75 3.04266 0.847784 2.62675 1.03613 2.25C1.2987 1.72486 1.72486 1.2987 2.25 1.03613C2.62675 0.847784 3.04266 0.75 3.46387 0.75H12.5361L12.6943 0.754883ZM3.46387 2.25C3.27552 2.25 3.08937 2.29372 2.9209 2.37793C2.68605 2.49535 2.49536 2.68605 2.37793 2.9209C2.29372 3.08937 2.25 3.27552 2.25 3.46387V3.53613C2.25 3.72448 2.29372 3.91063 2.37793 4.0791C2.49535 4.31395 2.68605 4.50465 2.9209 4.62207C3.08937 4.70628 3.27552 4.75 3.46387 4.75H12.5361C12.7245 4.75 12.9106 4.70628 13.0791 4.62207C13.314 4.50465 13.5046 4.31395 13.6221 4.0791C13.7063 3.91063 13.75 3.72448 13.75 3.53613V3.46387C13.75 3.27552 13.7063 3.08937 13.6221 2.9209C13.5046 2.68605 13.314 2.49536 13.0791 2.37793C12.9527 2.31473 12.8165 2.27407 12.6768 2.25781L12.5361 2.25H3.46387Z" fill="#B3B3B3"/>
</svg>
