<svg width="16" height="15" viewBox="0 0 16 15" fill="none" xmlns="http://www.w3.org/2000/svg">
<path d="M8.14648 0C8.37285 1.00151e-05 8.58994 0.0899366 8.75 0.25C8.91006 0.410063 8.99999 0.627153 9 0.853516V6.5H14.6465C14.8728 6.50001 15.0899 6.58994 15.25 6.75C15.4101 6.91006 15.5 7.12715 15.5 7.35352V7.64648C15.5 7.87285 15.4101 8.08994 15.25 8.25C15.0899 8.41006 14.8728 8.49999 14.6465 8.5H9V14.1465C8.99999 14.3728 8.91006 14.5899 8.75 14.75C8.58994 14.9101 8.37285 15 8.14648 15H7.85352C7.62715 15 7.41006 14.9101 7.25 14.75C7.08994 14.5899 7.00001 14.3728 7 14.1465V8.5H1.35352C1.12715 8.49999 0.910063 8.41006 0.75 8.25C0.589937 8.08994 0.50001 7.87285 0.5 7.64648V7.35352C0.50001 7.12715 0.589937 6.91006 0.75 6.75C0.910063 6.58994 1.12715 6.50001 1.35352 6.5H7V0.853516C7.00001 0.627153 7.08994 0.410063 7.25 0.25C7.41006 0.0899366 7.62715 1.00151e-05 7.85352 0H8.14648Z" fill="white"/>
</svg>
