<svg width="16" height="17" viewBox="0 0 16 17" fill="none" xmlns="http://www.w3.org/2000/svg">
<path d="M15 0.5C15.5523 0.5 16 0.947715 16 1.5V15.5C16 16.0523 15.5523 16.5 15 16.5H1C0.447715 16.5 0 16.0523 0 15.5V1.5C0 0.947715 0.447715 0.5 1 0.5H15ZM1.5 15H5V2H1.5V15ZM6.5 15H14.5V2H6.5V15ZM11.5498 5.5C11.7098 5.5 11.8634 5.56364 11.9766 5.67676L12.123 5.82324C12.2362 5.93643 12.2998 6.08994 12.2998 6.25C12.2998 6.41006 12.2362 6.56357 12.123 6.67676L10.7998 8C10.5238 8.27612 10.5238 8.72388 10.7998 9L12.123 10.3232C12.2362 10.4364 12.2998 10.5899 12.2998 10.75C12.2998 10.9101 12.2362 11.0636 12.123 11.1768L11.9766 11.3232L11.8848 11.3984C11.7863 11.4641 11.6699 11.5 11.5498 11.5C11.4298 11.5 11.3133 11.4641 11.2148 11.3984L11.123 11.3232L9.15332 9.35352C8.92702 9.12715 8.7998 8.82008 8.7998 8.5C8.7998 8.21999 8.89739 7.95011 9.07324 7.73535L9.15332 7.64648L11.123 5.67676C11.2362 5.56362 11.3898 5.50005 11.5498 5.5Z" fill="#676767"/>
</svg>
