<svg width="17" height="16" viewBox="0 0 17 16" fill="none" xmlns="http://www.w3.org/2000/svg">
<path d="M15.5 0C16.0523 0 16.5 0.447715 16.5 1V15C16.5 15.5523 16.0523 16 15.5 16H1.5C0.947715 16 0.5 15.5523 0.5 15V1C0.5 0.447715 0.947715 4.02659e-09 1.5 0H15.5ZM2 14.5H5.5V1.5H2V14.5ZM7 14.5H15V1.5H7V14.5ZM10.0498 5C10.2098 5 10.3634 5.06364 10.4766 5.17676L12.4463 7.14648L12.5264 7.23535C12.7023 7.45012 12.7998 7.71995 12.7998 8C12.7998 8.32013 12.6726 8.62714 12.4463 8.85352L10.4766 10.8232L10.3848 10.8984C10.2863 10.9641 10.1699 11 10.0498 11C9.92976 11 9.81326 10.9641 9.71484 10.8984L9.62305 10.8232L9.47656 10.6768C9.36344 10.5636 9.2998 10.41 9.2998 10.25C9.2998 10.09 9.36344 9.93642 9.47656 9.82324L10.7998 8.5C11.0759 8.22386 11.0759 7.77614 10.7998 7.5L9.47656 6.17676C9.36344 6.06358 9.2998 5.91002 9.2998 5.75C9.2998 5.58998 9.36344 5.43642 9.47656 5.32324L9.62305 5.17676C9.73619 5.06362 9.88981 5.00005 10.0498 5Z" fill="#676767"/>
</svg>
