<svg width="16" height="16" viewBox="0 0 16 16" fill="none" xmlns="http://www.w3.org/2000/svg">
<path d="M7.07677 0.679993C3.5538 0.679993 0.68 3.49515 0.68 6.98969C0.68 10.4843 3.5538 13.2994 7.07677 13.2994C8.59589 13.2994 9.99431 12.7759 11.0937 11.9003L14.0535 14.8601C14.319 15.1257 14.7496 15.1257 15.0152 14.8601C15.2807 14.5945 15.2807 14.164 15.0152 13.8984L12.0614 10.9447C12.9442 9.86405 13.4735 8.48943 13.4735 6.98969C13.4735 3.49515 10.5997 0.679993 7.07677 0.679993ZM2.04 6.98969C2.04 4.26586 4.28516 2.03999 7.07677 2.03999C9.86838 2.03999 12.1135 4.26586 12.1135 6.98969C12.1135 9.71357 9.86838 11.9394 7.07677 11.9394C4.28516 11.9394 2.04 9.71357 2.04 6.98969Z" fill="white"/>
</svg>
