<svg width="18" height="16" viewBox="0 0 18 16" fill="none" xmlns="http://www.w3.org/2000/svg">
<path d="M13.3232 9.81934C13.1339 9.2751 13.6474 8.74783 14.1963 8.92285L14.249 8.93945C14.3544 8.97311 14.4504 9.0309 14.5303 9.10742L17.3223 11.7812C17.4358 11.8902 17.5 12.0408 17.5 12.1982C17.5 12.3556 17.4358 12.5062 17.3223 12.6152L14.5303 15.2891C14.4504 15.3656 14.3544 15.4234 14.249 15.457L14.1963 15.4736C13.6474 15.6487 13.1339 15.1214 13.3232 14.5771C13.3595 14.473 13.4204 14.3791 13.5 14.3027L14.5518 13.2949C14.6864 13.1659 14.5956 12.9386 14.4092 12.9385H11.7197C11.462 12.9385 11.2144 12.8384 11.0283 12.6602L9.2793 10.9863C8.98636 10.7057 8.98636 10.2366 9.2793 9.95605C9.55485 9.69213 9.98998 9.69229 10.2656 9.95605L11.543 11.1807C11.7291 11.3589 11.9776 11.458 12.2354 11.458H14.4092C14.5956 11.4579 14.6864 11.2305 14.5518 11.1016L13.5 10.0938C13.4204 10.0174 13.3595 9.9235 13.3232 9.81934ZM13.3232 1.43066C13.1339 0.88644 13.6474 0.359193 14.1963 0.53418L14.249 0.550781C14.3544 0.584435 14.4504 0.64223 14.5303 0.71875L17.3223 3.39258C17.4358 3.50156 17.5 3.65217 17.5 3.80957C17.5 3.96696 17.4358 4.11758 17.3223 4.22656L14.5303 6.90039C14.4504 6.97691 14.3544 7.0347 14.249 7.06836L14.1963 7.08496C13.6475 7.25992 13.1343 6.73351 13.3232 6.18945C13.3595 6.08516 13.4203 5.99048 13.5 5.91406L14.5518 4.90625C14.6864 4.77726 14.5956 4.54988 14.4092 4.5498H11.7529C11.4759 4.5498 11.2106 4.66473 11.0215 4.86719L2.85742 13.6084C2.66831 13.8108 2.403 13.9258 2.12598 13.9258H1.24023C0.83156 13.9258 0.500186 13.5942 0.5 13.1855C0.5 12.7768 0.831446 12.4453 1.24023 12.4453H1.61133C1.8882 12.4453 2.15274 12.3302 2.3418 12.1279L10.5068 3.38672C10.6959 3.1844 10.9604 3.06935 11.2373 3.06934H14.4092C14.5956 3.06926 14.6864 2.84188 14.5518 2.71289L13.5 1.70508C13.4204 1.62873 13.3595 1.53483 13.3232 1.43066ZM2.62891 2.08301C2.91329 2.08309 3.18438 2.20409 3.37402 2.41602L5.70996 5.02734C5.96426 5.31159 5.94812 5.74582 5.67285 6.00977C5.38111 6.28922 4.91479 6.26835 4.64941 5.96387L2.85938 3.90625C2.66955 3.68819 2.39457 3.56262 2.10547 3.5625H1.24023C0.831446 3.5625 0.5 3.23105 0.5 2.82227C0.500248 2.41369 0.831599 2.08301 1.24023 2.08301H2.62891Z" fill="#B3B3B3"/>
</svg>
