<svg width="16" height="32" viewBox="0 0 16 32" fill="none" xmlns="http://www.w3.org/2000/svg">
<path d="M8.6543 8.91694C9.40053 8.616 10.25 9.16119 10.25 9.99995V22C10.25 22.8946 9.28358 23.4554 8.50684 23.0117L2.44531 19.5478C2.04292 19.3178 1.67246 19.0357 1.34473 18.708L0.755859 18.1191C0.271644 17.6349 2.00148e-05 16.9777 0 16.2929V15.707C2.51052e-05 15.0222 0.271643 14.365 0.755859 13.8808L1.34473 13.2919C1.67246 12.9642 2.04292 12.6821 2.44531 12.4521L8.50684 8.98823L8.6543 8.91694ZM11.375 10.1249C11.8397 10.1249 12.2983 10.2336 12.7139 10.4414L12.8594 10.5136C13.2131 10.6905 13.5358 10.9235 13.8154 11.2031L14.4443 11.831C14.8748 12.2615 15.2325 12.7591 15.5049 13.3037L15.5498 13.3935C15.64 13.5739 15.7175 13.7608 15.7812 13.9521C15.9261 14.3867 16 14.8417 16 15.2998V16.6904C16 17.1473 15.927 17.602 15.7842 18.0361C15.7188 18.2346 15.6394 18.4283 15.5459 18.6152L15.5029 18.7011C15.2324 19.2421 14.8759 19.7363 14.4482 20.164L13.8154 20.7968C13.5358 21.0764 13.2131 21.3094 12.8594 21.4863L12.7139 21.5585C12.2983 21.7663 11.8397 21.875 11.375 21.875V20.125C11.5678 20.125 11.7582 20.0803 11.9307 19.9941L12.0762 19.9208C12.2618 19.8281 12.4314 19.7062 12.5781 19.5595L13.2109 18.9267C13.5056 18.632 13.7511 18.2916 13.9375 17.9189L13.9805 17.832C14.0358 17.7213 14.0834 17.6068 14.1221 17.4892C14.2068 17.2317 14.25 16.9615 14.25 16.6904V15.2998C14.25 15.0297 14.2065 14.7611 14.1211 14.5048C14.0835 14.3921 14.0375 14.282 13.9844 14.1757L13.9404 14.0869C13.7522 13.7104 13.5037 13.3669 13.2061 13.0693L12.5781 12.4404C12.4314 12.2937 12.2618 12.1718 12.0762 12.0791L11.9307 12.0058C11.7582 11.9196 11.5678 11.8749 11.375 11.8749V10.1249ZM3.31348 13.9716C3.04617 14.1244 2.80073 14.3125 2.58301 14.5302L1.99414 15.1191C1.83811 15.2751 1.75003 15.4863 1.75 15.707V16.2929C1.75002 16.5136 1.83811 16.7248 1.99414 16.8808L2.58301 17.4697C2.80072 17.6874 3.04617 17.8755 3.31348 18.0283L8.5 20.9912V11.0078L3.31348 13.9716ZM11.625 13.4999C12.3154 13.4999 12.875 14.6192 12.875 15.9999C12.875 17.3807 12.3154 18.5 11.625 18.5C11.5393 18.5 11.4559 18.482 11.375 18.4492V13.5498C11.4558 13.517 11.5394 13.4999 11.625 13.4999Z" fill="#B3B3B3"/>
</svg>
