<svg width="24" height="25" viewBox="0 0 24 25" fill="none" xmlns="http://www.w3.org/2000/svg">
<path d="M21.7089 9.515C21.8578 9.51487 22.0051 9.54772 22.1396 9.61168C22.2742 9.67576 22.3934 9.76932 22.4873 9.88512C22.5811 10.0009 22.6478 10.1367 22.6826 10.2816C22.7173 10.4264 22.7194 10.5773 22.6884 10.723L20.3486 21.723C20.3009 21.947 20.1779 22.1482 20 22.2923C19.822 22.4364 19.6 22.515 19.371 22.515H4.62983C4.40091 22.5149 4.17886 22.4364 4.00093 22.2923C3.82292 22.1482 3.69995 21.947 3.65229 21.723L1.31343 10.723C1.28249 10.5773 1.28451 10.4264 1.31929 10.2816C1.35405 10.137 1.42008 10.0017 1.51362 9.88609L1.51265 9.88512C1.60655 9.76936 1.72569 9.6757 1.8603 9.61168C1.99483 9.54774 2.14201 9.51481 2.29097 9.515H21.7089ZM5.43843 20.515H18.5615L20.4736 11.515H3.52534L5.43843 20.515ZM12 14.015C13.657 14.015 15 14.91 15 16.015C15 17.12 13.657 18.015 12 18.015C10.343 18.015 8.99995 17.12 8.99995 16.015C8.99995 14.91 10.343 14.015 12 14.015ZM19 1.515C19.2651 1.515 19.5195 1.62047 19.707 1.80797C19.8945 1.99551 20 2.24978 20 2.515V6.515H18V3.515H5.99995V6.515H3.99995V2.515C3.99995 2.24981 4.10542 1.9955 4.29292 1.80797C4.48043 1.62046 4.73477 1.51503 4.99995 1.515H19Z" fill="#B3B3B3"/>
</svg>
